/* XPM */
static char *e1ccce6d91514626fde59f4bd800ef3bHSgyWImaJssLwly1[] = {
/* columns rows colors chars-per-pixel */
"48 48 73 1 ",
"  c None",
". c #131426",
"X c #141527",
"o c #16172A",
"O c #171829",
"+ c #18192C",
"@ c #1B1D30",
"# c #1B1D31",
"$ c #291D27",
"% c #291E27",
"& c #2C1F27",
"* c #24253B",
"= c #24263C",
"- c #26283E",
"; c #30303C",
": c #292A41",
"> c #292B41",
", c #292B42",
"< c #2A2C43",
"1 c #2B2D44",
"2 c #2C2E45",
"3 c #2E3046",
"4 c #2F3146",
"5 c #353640",
"6 c #303247",
"7 c #3A3A43",
"8 c #37384C",
"9 c #46464C",
"0 c #464756",
"q c #5C5C65",
"w c #606067",
"e c #69696E",
"r c #73726E",
"t c #6D6D71",
"y c #757470",
"u c #787877",
"i c #7C7B7B",
"p c #7F7D78",
"a c #9B4F2A",
"s c #9C4F2A",
"d c #9E4F2A",
"f c #A55730",
"g c #A95A32",
"h c #C4602B",
"j c #C5612B",
"k c #CB632B",
"l c #CB662F",
"z c #817F79",
"x c #CD7E4E",
"c c #83827A",
"v c #D18150",
"b c #878683",
"n c #929085",
"m c #94938C",
"M c #9E9C8F",
"N c #9A9890",
"B c #A29F91",
"V c #A19F94",
"C c #A3A196",
"Z c #ABA898",
"A c #B2AF9D",
"S c #B9B7A6",
"D c #BDBAA8",
"F c #C2BEA9",
"G c #C8C5B0",
"H c #CBC7B0",
"J c #D0CCB4",
"K c #D7D3BA",
"L c #D8D4BA",
"P c #E1D0AF",
"I c #E3DFC2",
"U c #E3DFC3",
"Y c #E4E0C3",
/* pixels */
"                   ..........                   ",
"                ................                ",
"             ......................             ",
"            ........................            ",
"          ............................          ",
"         ..............................         ",
"        ................................        ",
"       ..................................       ",
"      .......@*>1>=@......................      ",
"     ......o-1111111=o.....................     ",
"    ......+>111111111>oo....................    ",
"    ...OyHYUb812111111=.....................    ",
"   ....AYYYYYYm21111111@.....................   ",
"  ....;YYVqeDYYN1111111=......................  ",
"  ....zYM>113CYYt211111>......................  ",
"  ....ZYn11113SYK2111111......................  ",
" .....cYK62>2<0Gi111111>....................... ",
" .....7YUu22<2<22111111=....................... ",
" X....XCUJ222<2<111111<@....................... ",
"......X;UYw2<2<2111122=.........................",
"........FYz>222<11111>o.........................",
".....$dhxPro=<<21111=o..........................",
".....dkkkv9..@=>>>=@o...........................",
".....jkkklX.....X...............................",
".....akkkg......................................",
".....&dhf$......................................",
"................................................",
"................................................",
"................................................",
" .............................................. ",
" .............................................. ",
" .............................................. ",
"  ............................................  ",
"  ............................................  ",
"  ............................................  ",
"   ..........................................   ",
"    ........................................    ",
"    ........................................    ",
"     ......................................     ",
"      ....................................      ",
"       ..................................       ",
"        ................................        ",
"         ..............................         ",
"          ............................          ",
"            ........................            ",
"             ......................             ",
"                ................                ",
"                   ..........                   "
};
