/* XPM */
static char *_655d6d9736e4974a453b878f10a40d9GDVjY85M7T0uB2Fs[] = {
/* columns rows colors chars-per-pixel */
"64 64 137 2 ",
"   c None",
".  c #0D75B6",
"X  c #0C76BA",
"o  c #0E78BD",
"O  c #117ABD",
"+  c #0E7BC3",
"@  c #0F7DC8",
"#  c #117DC5",
"$  c #117ECA",
"%  c #1680C5",
"&  c #1881C6",
"*  c #1582CC",
"=  c #1984CE",
"-  c #1685D1",
";  c #1A86D1",
":  c #1D8AD4",
">  c #1E8DD9",
",  c #208CD7",
"<  c #218ED9",
"1  c #2192D6",
"2  c #2492DD",
"3  c #2699DD",
"4  c #2696E1",
"5  c #2896E2",
"6  c #279AE3",
"7  c #2699E2",
"8  c #259CE0",
"9  c #2798E4",
"0  c #2699E4",
"q  c #2799E4",
"w  c #279AE4",
"e  c #279BE4",
"r  c #2699E3",
"t  c #2899E3",
"y  c #2898E5",
"u  c #289AE4",
"i  c #299AE4",
"p  c #299BE4",
"a  c #299BE5",
"s  c #289BE6",
"d  c #289CE5",
"f  c #289DE5",
"g  c #299DE5",
"h  c #2A9DE5",
"j  c #299DE6",
"k  c #2A9DE7",
"l  c #299EE7",
"z  c #2A9EE7",
"x  c #299BE5",
"c  c #2A9FE8",
"v  c #2A9FE8",
"b  c #2BA0E7",
"n  c #2BA1E7",
"m  c #2AA0E8",
"M  c #2AA1E8",
"N  c #2BA1E8",
"B  c #2AA1E9",
"V  c #2BA2E9",
"C  c #2DA5E8",
"Z  c #2DA6E9",
"A  c #2DA5EA",
"S  c #2EA4EB",
"D  c #2DA7EA",
"F  c #2EA7EC",
"G  c #2CA3EA",
"H  c #2FAAEC",
"J  c #2FA9ED",
"K  c #30ABEE",
"L  c #30ACEF",
"P  c #32ACEF",
"I  c #31ABEF",
"U  c #31ACF0",
"Y  c #32ADF0",
"T  c #32ADF1",
"R  c #31AEF0",
"E  c #32AEF1",
"W  c #32AFF1",
"Q  c #32AEF2",
"!  c #32AFF2",
"~  c #32ADF1",
"^  c #33B0F2",
"/  c #33B0F3",
"(  c #33B1F3",
")  c #34B0F3",
"_  c #34B1F3",
"`  c #33B0F4",
"'  c #34B1F4",
"]  c #35B1F4",
"[  c #34B2F4",
"{  c #35B2F4",
"}  c #35B2F5",
"|  c #34B3F5",
" . c #35B3F5",
".. c #36B2F5",
"X. c #36B3F5",
"o. c #34B3F6",
"O. c #35B3F6",
"+. c #35B4F5",
"@. c #36B4F5",
"#. c #37B4F5",
"$. c #35B4F6",
"%. c #34B2F4",
"&. c #3FB7F3",
"*. c #38B3F4",
"=. c #38B4F4",
"-. c #39B4F4",
";. c #38B4F5",
":. c #39B5F5",
">. c #3AB5F4",
",. c #3CB6F4",
"<. c #3CB6F5",
"1. c #3EB6F4",
"2. c #3FB6F4",
"3. c #3BB5F4",
"4. c #44B7F3",
"5. c #45B7F3",
"6. c #40B6F4",
"7. c #41B7F4",
"8. c #41B6F5",
"9. c #42B7F3",
"0. c #44B8F3",
"q. c #45B8F3",
"w. c #45B8F3",
"e. c #49B8F3",
"r. c #4AB9F2",
"t. c #4AB9F3",
"y. c #4FBAF2",
"u. c #4FBBF2",
"i. c #4CBAF2",
"p. c #50BAF2",
"a. c #50BBF2",
"s. c #51BBF2",
"d. c #51BCF2",
"f. c #52BCF2",
"g. c #53BCF2",
"h. c #54BCF2",
"j. c #53BCF2",
/* pixels */
"                                                                                                                                ",
"                                                                                                                                ",
"                                                                                                                                ",
"                                                                                                                                ",
"                                                  h.h.g.g.g.h.g.g.g.h.h.g.g.g.                                                  ",
"                                            h.g.g.e.4.6.&.=.@.@.@.=.=.=.8.q.e.u.g.h.                                            ",
"                                      s.g.s.e.&.@.O.O._ ` _ ^ _ ^ _ ^ O.O.O.@.>.&.e.s.g.h.                                      ",
"                                    h.u.q.>.O.O._ Q G G z 2 2 < < 2 9 u n A Q ` O.O.>.5.u.h.                                    ",
"                                h.g.q.@.| ^ H M u u 1 < < 9 t z 9 4 1 < < < < 2 c P O.*.@.0.s.h.                                ",
"                              g.e.<.@.^ D 2 9 9 < < 2 z 9 1 , = * * $ $ # # o @ $ ; 2 A ^ @.>.e.h.                              ",
"                          s.s.q.>.` A 1 1 9 2 < 9 u 1 : * o $ ; < 2 2 9 y 9 < , ; & O . 1 D ^ >.q.s.s.                          ",
"                        h.s.8.@.` 3 = u 9 < 2 9 1 ; # # : 9 t t u 9 e 9 u v v G M c t 2 * X 3 L O.8.s.h.                        ",
"                      h.s.1.@.Q 2 * u 2 < 5 3 ; # # 2 y 9 2 2 2 2 2 < < 1 < < < 9 z u v v y : 1 K O.&.u.g.                      ",
"                    h.u.1.O.Q 1 ; h 2 2 5 < # # < y 5 < < : ; : : : < < , > , : : : 1 u 9 5 z 2 2 L O.&.s.g.                    ",
"                    g.1.@.Q > ; i < < 5 , # # i 3 < < ; * < u t 2 2 2 2 < 4 4 5 2 < ; : < 9 2 9 3 9 K O.6.g.                    ",
"                  g.0.@.^ 2 * 9 2 2 t * O = y < : * ; 2 9 2 < : * ; - ; ; $ ; ; 2 1 9 2 : * : 9 2 9 z Q O.q.g.                  ",
"                s.e.-.Q z * < 9 < 9 ; + : 2 < ; - 2 t < ; * : < < < , , ; , : : ; $ ; , 4 < ; , 2 2 2 G _ *.e.h.                ",
"                u.&.O.A ; ; u < 9 : + : 9 : * > u > ; = , < : ; ; ; , < < , ; : , : ; ; $ : 4 , : > 2 2 A O.1.s.                ",
"              g.q.O.Q 2 * 2 2 2 2 % = 9 : * < z ; ; , : ; : < : ; $ ; $ * ; > < < < , ; : $ , < 2 ; : 9 2 Q O.4.g.              ",
"            h.u.=.O.z : : t 2 u = % 3 , * < 9 ; : : * : < ; # @ $ $ * $ ; = * * * ; < 2 < ; $ $ : 9 : ; 2 u _ *.u.h.            ",
"            g.4.@.H 2 * < 2 9 : $ 2 < * > 9 : ; ; ; < * + $ * = , , , , : : ; ; , , ; > 2 3 : ; * : u ; : 2 K O.6.g.            ",
"            s.>.^ p < ; 2 2 9 * : 2 ; - e ; - : : : # @ $ : 2 2 < 2 < < 2 2 < : ; , < ; ; < 4 , - @ : 5 - < z ! &.s.            ",
"          g.e.@.U 9 : , 3 5 > $ 9 : : 9 > : : : : + # ; 2 < : , : : , , : : < < < : ; , < * : y > * $ 1 2 ; 9 Q O.e.g.          ",
"          g.&.` t 2 ; 1 2 9 * * 2 ; : 9 * : : : # $ < 2 ; ; : < 2 , , , < 9 < ; > 2 , ; : < ; < 9 > * * 2 < ; G O.&.g.          ",
"          g.@.^ 1 2 : 4 2 2 * 2 , * 9 , ; : < $ # < 2 * ; 2 < & $ $ $ $ $ = , 2 < , , , $ , < * < 9 : * : u ; 2 _ -.g.          ",
"        h.e.@.L < < : 2 9 < * 2 : ; 2 ; 1 : : o > 2 & : < = O O # ; , , & O # # 1 2 , , < $ , < * 2 9 : $ < 1 ; L O.e.h.        ",
"        h.4.O.n 4 , : 4 9 : - < * 2 2 * < < # = 2 # = 2 # . = < 5 2 2 2 2 5 , O O , 3 : < < ; < : : 9 < - $ 9 * C O.6.h.        ",
"        s.6.Q 9 9 , : 2 9 ; : , ; u < : < : O < : * < % o , 2 , ; * $ ; , 2 2 5 # O < 2 , 2 , , 5 $ 2 9 : $ < < 3 O.6.h.        ",
"        g.1._ 1 9 : , 2 9 * < , ; 9 = < < = * < * ; = o * 1 * # $ : = # # $ < 2 5 = O 2 < , 2 : < , : 5 2 * ; 9 1 ` 1.g.        ",
"        s.>._ : y : < 4 9 * 2 , : 9 = 2 1 $ ; < * ; & o - - $ * < 3 2 < = + # < 2 5 O = 9 : 2 ; , 2 * 9 9 ; $ 2 < ^ >.g.        ",
"        h.@.^ ; 9 , < 2 9 ; 1 : : 9 * 2 2 @ : : * ; @ # * $ : 4 5 < 2 2 2 ; . # < 2 : # < 1 1 2 ; < : < 2 < - , 9 ! @.h.        ",
"        g.@.Q ; 9 : , 2 2 * 2 : : 2 * 2 > $ ; ; * = @ $ $ - < 4 4 y 5 2 2 < = O : 2 9 # ; 9 < 9 ; < 9 * 9 < ; - 2 ` @.g.        ",
"        g.@._ = 2 , , 2 u * , , : 2 * 2 1 $ ; ; * * + * * * 2 4 4 < < 4 < < ; O * 2 3 * ; 9 , < , < 5 * 9 2 ; * 2 O.@.g.        ",
"        g.@._ = < < , 9 u : ; < , 5 ; < 2 * ; ; @ @ @ $ @ * < 9 4 , , , < , ; O # < 5 , * 2 < < , < 2 * 5 2 : * 2 _ @.g.        ",
"        g.=.^ < < < ; 2 u , * , : 9 ; < 2 ; * ; @ * @ @ $ $ - > , : ; , , , $ $ + : 5 2 * 2 2 < < < 2 ; 5 2 , * 2 ^ =.g.        ",
"        g.&.O.2 < 2 = 2 9 < * < * t > ; 2 : # ; * @ * * @ $ @ @ $ ; ; ; $ $ ; # @ : 9 < * 2 < 2 < , 2 ; < 2 < * 2 O.&.s.        ",
"        g.8._ z ; y , , 9 2 * < : 1 9 * : 2 # * * @ $ * @ @ @ @ $ - ; ; $ $ $ # # < u : * 4 < 1 < < < , < 2 2 * 9 _ 8.g.        ",
"        g.q.@.F ; 3 < ; 2 9 : = : * z ; * 5 ; + ; * + @ * * * * $ ; $ $ $ , $ # $ 1 y : * 9 < 2 , < 2 , < 2 < $ C O.q.g.        ",
"        h.e.O.Q , ; 2 , 2 9 2 $ < * 2 2 * : 2 * @ * * @ + @ * * $ ; $ $ $ $ $ . = 3 2 ; : v : 2 , < 2 ; 5 2 < $ H @.e.h.        ",
"          s.-.Q 4 * 2 , : 9 9 * = : - 9 ; $ < 1 # + * @ @ * + @ $ $ $ # # $ O O < y < $ < u : 2 ; < 2 $ 9 2 < ; ^ @.u.          ",
"          g.&.O.M : < 2 * 2 t 1 $ : * < p * $ < 2 # + $ $ $ % @ # # @ # @ O X * e 1 * * 9 : : 9 ; < 2 @ e 2 : 9 ^ &.g.          ",
"          g.e.O.Q 2 ; 9 ; : 2 t = # : * 2 z * $ < 2 = # o @ @ @ # @ @ @ + o * 4 9 : + : z : 1 < < 2 2 : 9 2 = F @.e.g.          ",
"            s.=.O.u ; > 2 * < t 9 * O ; * 3 z ; $ = 1 < : * * @ $ $ # o O = 9 9 : o * 9 2 ; 9 ; < 2 : < 2 9 1 O.=.g.            ",
"            h.q.O.U 1 - 9 ; = 2 t 2 # O - * : u 1 * * * * : * * $ @ # $ : z 2 : o # 1 z * < < < 2 t $ 2 2 < A O.q.g.            ",
"            h.u.>.^ n : ; 9 ; ; 2 u 3 # + @ $ ; 3 m > : : ; ; : ; ; : t u 2 ; o o > u : ; 2 = 1 u < = t 1 4 Q >.u.h.            ",
"              s.q.` U 4 ; : 9 ; ; 2 t 2 * + + $ * : > v c u 2 3 c v t < : $ X # < u > * 9 : : 9 t $ 2 2 2 K O.5.g.              ",
"                u.&.` H 4 * : u ; ; 2 9 9 : # o X + * ; : : < : , : - @ X # * 2 v < * 9 < ; 2 t : : 9 1 G O.1.s.                ",
"                g.e.@.^ C 9 ; : h ; * , 9 u 9 : * + X . X X O . O . . # = 1 u u : * 4 > * 2 e 9 = 9 2 z _ O.e.h.                ",
"                  g.q.O.Q z 3 ; : 9 : * * 2 9 t 9 1 : = * * # = = * : 1 v u 1 * ; 9 > - 1 u u # : 2 p W @.q.g.                  ",
"                    g.8.` L 9 9 ; * < 9 : = : : 2 t z z 9 9 t t t v u 9 > ; : < 4 : - < k z = ; 2 t L @.8.g.                    ",
"                    h.s.1.@.L t 2 < : ; 2 2 : : ; ; : < 1 2 2 2 < : : ; ; < 9 > * : 4 v u ; ; 2 9 Q @.1.s.g.                    ",
"                      h.u.&.=.L z 2 9 : : : 3 9 2 < : ; : = : = = < < 1 9 < ; : < 9 l 9 - : 9 M Q @.1.u.h.                      ",
"                        h.s.8.O.Q F 2 2 9 < , ; : < 9 3 9 2 9 2 2 2 < , = < 1 9 v v 9 # = t H Q @.1.s.g.                        ",
"                          h.s.q.>.^ U z < 2 9 9 < < < : : : : : : : < < 2 e v v k : $ : z Q O.*.q.g.h.                          ",
"                              g.e.&.@._ K v 2 < 2 9 9 2 2 2 2 2 9 9 t z z z 5 2 $ ; z K _ @.&.e.g.                              ",
"                                h.s.4.=.O.O.Q A z 9 3 9 t 9 6 z e z z t 2 ; $ < n L O.O.=.6.u.h.                                ",
"                                    h.u.4.>.@._ _ L A n t 9 2 2 1 9 2 : 2 n L ^ O.O.=.4.s.g.                                    ",
"                                      h.s.s.e.6.>.O.O._ _ _ O._ ^ Q ^ ^ | | O.>.&.e.s.h.h.                                      ",
"                                            h.g.s.e.q.8.&._ @.@.@.@.>.1.8.q.e.u.g.g.                                            ",
"                                                  h.g.g.g.h.g.g.g.g.s.h.g.g.h.                                                  ",
"                                                                                                                                ",
"                                                                                                                                ",
"                                                                                                                                ",
"                                                                                                                                "
};
