/* XPM */
static char *b32748b68b6f4949c240e9f9c524ef73qJ7ZK7kshzh2F8rl[] = {
/* columns rows colors chars-per-pixel */
"64 64 113 2 ",
"   c #406444",
".  c #426646",
"X  c #436646",
"o  c #426647",
"O  c #436747",
"+  c #446747",
"@  c #436748",
"#  c #446748",
"$  c #446848",
"%  c #456848",
"&  c #446849",
"*  c #456849",
"=  c #456949",
"-  c #466949",
";  c #456A49",
":  c #466A49",
">  c #476B49",
",  c #45694A",
"<  c #46694A",
"1  c #466A4A",
"2  c #476A4A",
"3  c #466B4A",
"4  c #476B4A",
"5  c #476A4B",
"6  c #476B4B",
"7  c #476C49",
"8  c #476C4A",
"9  c #476C4B",
"0  c #476B4C",
"q  c #486B4B",
"w  c #486C4A",
"e  c #486D4A",
"r  c #486C4B",
"t  c #486D4B",
"y  c #496D4B",
"u  c #496E4B",
"i  c #486B4C",
"p  c #486C4C",
"a  c #496C4C",
"s  c #486D4C",
"d  c #496D4C",
"f  c #486C4D",
"g  c #496C4D",
"h  c #496D4D",
"j  c #4A6D4D",
"k  c #496E4C",
"l  c #496E4D",
"z  c #4A6E4C",
"x  c #4A6F4C",
"c  c #4A6E4D",
"v  c #4A6F4D",
"b  c #4B6F4D",
"n  c #496D4E",
"m  c #4A6D4E",
"M  c #4A6E4E",
"N  c #4B6E4E",
"B  c #4A6F4E",
"V  c #4B6F4E",
"C  c #4B6E4F",
"Z  c #4B6F4F",
"A  c #4C6F4F",
"S  c #4B704D",
"D  c #4B704E",
"F  c #4B704F",
"G  c #4C704E",
"H  c #4C714E",
"J  c #4C704F",
"K  c #4C714F",
"L  c #4D714F",
"P  c #4D724F",
"I  c #4C7050",
"U  c #4D7050",
"Y  c #4C7150",
"T  c #4D7150",
"R  c #4D7151",
"E  c #4E7151",
"W  c #4D7250",
"Q  c #4D7251",
"!  c #4E7250",
"~  c #4E7350",
"^  c #4E7251",
"/  c #4E7351",
"(  c #4F7351",
")  c #4E7252",
"_  c #4E7352",
"`  c #4F7352",
"'  c #4F7451",
"]  c #4F7452",
"[  c #4F7453",
"{  c #507353",
"}  c #507452",
"|  c #507552",
" . c #507453",
".. c #507553",
"X. c #517553",
"o. c #517653",
"O. c #507554",
"+. c #517554",
"@. c #517654",
"#. c #517655",
"$. c #527654",
"%. c #527754",
"&. c #527755",
"*. c #537755",
"=. c #537855",
"-. c #537856",
";. c #547856",
":. c #547956",
">. c #547957",
",. c #557957",
"<. c #557A57",
"1. c #557A58",
"2. c #567B58",
/* pixels */
"Y l D Y K l A K Y K t l K l K K | K t t l K l Y D D K t Y Y Y l K K t Y l K Y l %.Z A %.Z l Y A Y Y A K Y Y l Y Y Y Y l Z Y Y K ",
"K t %.Y Y | K K K Y Y K Y K K l K P | K | K Y | D l Y | Y t Y | Y K t Y t K l q Y Y Y l Y Z Y Y l K Y l l Y - Y Y %.l %.l D l %.",
"| Y K l Y K K K K K | K D Y l K K { t K Y Y K t K | Y %.l K K K | Y Y Y Z %.l D Y Y l l I I l 9 | l Y K Y %.I l q K l Y | Y Y l ",
"Y | Y K | t K K K t K K K Y K | K K K t Y | K t K Y K K Y Y t K Y | | U [ Y | K | A %.K l %.7 Y l Y Y A Y Y I Z l Y l Y Y K A l ",
",.| K K ] K K K K Y { l K t | Y t K Y K | t K | Y K Y | Y l K t Y %.Y K l D ] Y l l Y l - | ] - K Y Y | l | %.l Y ] I l U D %.- ",
"] { P K | K Y A | K t K K K A K A K Y { K l K K K A K l l l ] Y Y Y Y Y l Y l K Y l K l ] Y 7 K l K D ] D D l %.] [ I 9 - Y I l ",
"Y | | P P K t t q - q t - t - l A l A | # - + l X l - # q - - l - l q q l + - l l - i l - l + - l A - - 0 - 9 Y - - l l 7 I ] l ",
"K K K =.| K q | | { | ] D A { %.| { K Y K Y S | | Y 2.K Y { t K K %.l *.l Y K l K Y I [ Y Y K K K l K Y Y Y Y Y 9 I & [ l 9 9 D ",
"! K | | { K q | | K | ! %.K ! | K %.| K | | A ' ! K K K x A x | l ! | A ! | ! K A x K ! | K | K t A K K A | A K D l - Y Y Y l Y ",
"| %.K K K | - ! %.K K | | A | | K ! { x ! ! K | K K K K ,.! ! ! Y K K K K x | K ! ! { ! K | { K { | t K l | l Y D D 9 Y Y Y Y Y ",
"{ %.K | K ' l K K | K K | K A ! K { | %.,.t x K ! K ! ,.! | ! x K | | K { x K S K { %.! q S K { K K | A K K | A D D l Y { l K A ",
"| ! { | x K A t | ! ' A q q t + q A q t l A q + q x A l A q q x l - A l A + t q t A l K t t + A + K q l q t | K Y D - 9 l K Y A ",
",.{ K ! K K - K K K K q K P | K ' | | ! | { x | x %.A | S K ! ' | { ! ! K | ! ! A ! K ' ' K ! K K K K t t Y | K K K A Y Y %.Y { ",
"%.K | %.| K t K { | K K { | | K ! t K K K | %.! ! ! t | K K K | | A | t ! ! %.' | t | K K | | ! P | ' K + K K l D l - Y | l Y Y ",
"{ | | K A t t K ! K ' + K | A K K K K K l P | { K K | K ! K | K t K K K K x K ! ' { K K K ' K K ! x K x t { | K D ] - A l D Y l ",
"| | { ! K K t ! | K { t | t | K K Y K %.| K K ' ! { K | ! t { K | t ' K ! ! ! x K K | K ! ! ' | ! %.! ! Y K K D K l l l l q K Y ",
"K | S K K S + ' K ' K t Y | | K q + t q q - q q q t - l A l t { + q q t + A q + i t q K # l l q | K K | A K { | K K + l Y | l l ",
"! K ' K K K + ' K K | t ! { | ,.x K ! ' K K K K S K K %.K A S ' S %.K K | K K K K ,.K K | x A t | K ' K t t t K { | q { Y Y Y l ",
"K ! K K K | t | K A { + { | ,.K t A ! K { K K ' | { K | K ! S A K K A K t K | K K K { | ! | K A S ! x K q K ! K K t t | t l Y Y ",
"K | K ! | { q K | | t t ! t | K q K | | K | K ' ! | | K K K %.,.| t | | | t S ! K | | K K A K - %.' ! ' t K | ' l D q Y | A Y A ",
"| A K | K ! l | | K | A %.| ! K l | K K ! | %.| A K q S | | { x | | K t t | | K K | { ! K K t - ! | %.K q x | K Y ] - Y A D l l ",
"S ! %.| K K q | | K x q ! | x K q | K ' ' | | K { *.t | ! | ! | ' | | | K K K K ! K | | | K %.- %.! ' x - { { | Y D X K K - A t ",
"x ! ' K ! | t | ! K ! A { ! ' S q x K ' ,.Y   + t l t - A + - + U - q - A t K - q t ! =.| K %.A ! K | K q t { K Y l i l K Y K K ",
"! ! K K | A q l K { | t K | K K - ! ' K K A l | t K K K K | ! K I %.| %.K S D K { + | K | K K q { ! K | A x ! | K K - | Y Y l l ",
"| ! ! K ! ! t ! K ! K t { | K K q %.*.A { t A K K %.K K %.{ %.! Y | | | K | ! | t - K ! K x | q ' ! K A A K K t | t l l Y K - Y ",
"K ! t x | K q K | | K A K | K K + K K K ! ! - t | %.x K ! ' ! x *.Y K | | ! K | { A K K x | { q ! K ! | q t { | Y | @ D Y l Y K ",
"| | K ,.t ! t { K K K t | | K ! q K K %.t { l | ! K x ! S ! K S K | { P ! K | K | t | ! ! | ! q K K K K t K K S l t - | l ] l { ",
",.K ! K %.{ l | K K { q | | t ! q | K ! | K q t K %.! | K K ' ! | Y t | | A { | | q K t { K | t ' ! ! K q | ' K K K - K K l K K ",
"| | | | K | - { ' ! | q K K K ' A K %.K | | - K { | ' S ' ' ' ! t ' K ! S t ! %.| q | ! | | A q | K x | X { K =.Y %.- K l | l { ",
"{ K %.t K K K K ' S A q x x ' K q A | K | | t K S | ! K K K ! ! ' K { | | | 2.x K - { x | K x t ! ! | K A ! K | l l l Y K K K l ",
"K K ' ! ! | t ! K | x A { x ! A t Y | { | K A { ! ! =.K t ! ! ! | ' | %.%.%.! K x q | A Y K ! q K S ! { K | ! K K l - K K Y t { ",
"| ' K ! ' K - A K | ! x x ! ' | A | | | Y | l l ! ! ! | ' K ,.t ! ! ! K K K ! | K q ! K K K | + ' ! | ! q t | K K l - l K Y K K ",
"| x x | ' { K t K | t x K ' %.K q | t | | K l | %.K A K | %.| %.K ! | { S %.' %.t t K { %.| | q { S | t K ! | ! x K l Y U K t t ",
"x t { K K K q K K | ,.+ | K | =.+ | A l ] A q A %.=.K ! A ! ! K x | ,.K ! K %.| { U A K ' K %.l t { | | - ! | ! K l - | K { l K ",
"| ! | ' A K + K | K S q | { K ' l l | | | | t *.| | ! %.K %.! K %.x | K ! %.! ! %.l K K { S ! t ' K K K A ! ' K { A # t Y K K l ",
"| ,.K K K ' t K ! ! P - K K ! | t A Y K Y | + ! ! ! ! | { x ' ' | A K ! K ! | | | q | | K ! K q | K K K + | S ! | x q Y l | K K ",
"K K ' ' | K - { | K | t t K K | - Y { | x ! q ! ! %.! x K K ! ! | ! %.S ! K { ! K q | | | K K + K | | K t ! K ' ] I - K K Y t l ",
"! ' K K | A q Y K ' A q ' { | =.l | | l | | q K | %.K { K K K { ! | K ' K | ! | | + K ! ! K =.+ K { K | i | K | K %.- Y %.Y K K ",
"K ' ' t { K t ! | ! A l ! | ' K t K | A A A K x A x K | | ,.K { x K { ! x K K K | q =.K K K { q | | A | q ! A K l ] q Y l %.l l ",
"K K | x | | A | ! | K + K ! x K K | K D | | % | | ! ! | | K K | ' A ! %.! ! ! %.A K ! K ! K t q ! K ' S q K K ,.] D i K l K K K ",
"K =.t %.A | t ! ! | | q K | | K - Y K t K K K K { | | | { K ! | ' ! ! { | ! | K %.q K | K *.| q %.! A | q ! S S l K @ ] l D ] l ",
"! K A | | | q K K K { t ,.! ' ! t A | ' S ! + t t A t l + A t q q K - X q q q A t A | *.| K Y - K | K K - ! K ! S K - | ] D D D ",
"S t K %.K | + %.t K A q K K { K q K t ! ' K | K x ! | { ! { t S ! K x A ' | K %.x { K ! | %.{ A ! K x K - S S K K P - l D ] D Y ",
"! %.K ,.A K q A K | K l | | K ! q l { | ! | ! ! t K K *.K x S ' ! | | K S ! ! ' { | | t | K K q K K | K A | ' ! ,.K l D t Y | Y ",
"| | P K ' K q x | K K q | { ,.K t K K =.| K =.%.| K | K K t | K ' S ' K K ! ! { A P K | K K | l ! ! ! %.q A K ! Y K l Y D | Y Y ",
"{ P | | | K - K ' ' K K | ! K %.- | ! ! K K { | | K K t ! K t K x | t ! S K %.! S | K =.| | *.q ! %.| S q t S K | { l Y | Y Y | ",
"| ] t K | | l ! K K K A K | ! | A t t { K Y | K | K K ! K ! ,.' K x | { %.| K K | K K t | K *.q K | ! K - K | S ! x 7 D ] K Y | ",
"K t P { Y A t | { K ! + | | K K + A q q q l q t - t + q q t q + A x q q q q t q A t - + q + Y q ! x S ! + K ! { K K - l K Y l ] ",
"! | | K ! K q K K | ! q K | { | K K ' %.%.A ! t =.x K *.K K | | ,.! ! | | K K | ' { x K K ! K S | ! ! ! q A | K A x A - ] t K K ",
"| K | K K %.A | | ! K + | | | K ! K ' ! | %.' ! ! | x | ' S ' t { { | K | A | | K ! %.S t | K ! | ' | %.A %.K K x K A K D D K K ",
"! x A K ! K l K ! K S q K | { K | K K t A K | =.! | { K K K K ,.! | | | | | K K ' ,.! ' ! K K K x K ! t t | { | ! ' + K ] Y D l ",
"{ K l | ! K q ' K ! | x P | | S { K *.K | t K K ! { | ! K A | K ! K K A { | K ! K K S ! - ! K ! K K ! =.q | %.| %.! A K K Y Y K ",
"K | ! | ,.K t A ! K K t q q + q t q l t - t q t A + q t q t l t + t l l + q t q t l A A q t t q q q q t q K K x | K l ] l K Y K ",
"| ' K | %.x q P | K { | K { ] | A %.{ K { ! t ' ! K ' x { K ' ,.] K { ! S K ! K x ! ! K ' ' ! ! | ' ! | | K { K %.l l t K K K Y ",
"K ! S A ! x t ! t K | | | | K K K | K { K | ' K | A K K A ,.t | ! ! K K K K { %.K ! K A ! ' ' K K K x ! { | K K | K + K K Y | Y ",
"K t | | | S - A K x | K A %.K | | | | %.t K S t t | | x | t ! ! | | K K ' ! K | ! ! x K =.' K K ' t x K | | K K | A - { K | K K ",
"x S x ' x K A K ! %.K | K K K { | K %.! x A K K K | A | K K K Y | ! K | ! K t K x { | ! | | K K K K ,.Y | | | | | K q Y ,.K Y D ",
"K ' { K K t q | %.! t | | K K K K ! | { A %.{ K K K t t K | | | %.! ! { | ! | | t t K K ! { K K D K K | K | { | | l q K D Y K K ",
"| %.K ! *.{ q t q A t + ! q q q q l A A + + q l - t A q q q q t t + A q i l + + q q A t + + A A + l q - A q t q A i l K Y %.l D ",
"! x { K %.x ! t | { K { A K ' ! | K K { =.%.S ! K K ! | | | K | | A K x %.| | | K | K ' | ' | K ! K A | | K =.K | %.A D Y | K l ",
"X.%.{ ! | ! t K ! x K | | K K | | S | | { K | %.K K K | K K | ! ! K | l %.{ K ] ! x ! ! K ' K ! K ! ,.| K | ! S K | K t Y K K Y ",
"A ! %.K ! ! K | | l | | K | K S ' K | | K A | | K { ! K =.K | K %.{ | | Y *.K K ! t K ! K %.S | K ' K K ! K ' ! K Y | | Y Y K K ",
"K x | K K K | | | { | | ' ! | K S ! =.K t ! ! ' K | ' | K | ,.| K K | K ! K K | | K K A | | K ! ! ! | K K | | K | %.| t l t K | ",
"%.| ' ' A K ! t { | | K ' { | | ! ' K K K K =.! ! ! | | | | { x K | | | | ' K l K K | | K ,.K ! ' x K K | A ,.A { Y A Y ] Y ] Y "
};
