/* XPM */
static char *_757b977233a4786e43435a3acea8c8dTNMECPqOJBQI17gr[] = {
/* columns rows colors chars-per-pixel */
"64 128 106 2 ",
"   c None",
".  c #445539",
"X  c #45563A",
"o  c #4A5B3F",
"O  c #56654B",
"+  c #56664C",
"@  c #647259",
"#  c #5D6E77",
"$  c #5E6F76",
"%  c #586B79",
"&  c #6D7A62",
"*  c #6F7B64",
"=  c #727C6E",
"-  c #CB632B",
";  c #CC6831",
":  c #CD6933",
">  c #748069",
",  c #79856F",
"<  c #7A866F",
"1  c #FFDA30",
"2  c #FFDA31",
"3  c #FFDA32",
"4  c #FFDA33",
"5  c #FFDB34",
"6  c #FFDC3D",
"7  c #ACA354",
"8  c #ADA454",
"9  c #848F79",
"0  c #85907B",
"q  c #86907B",
"w  c #D48153",
"e  c #DD9C76",
"r  c #FEDD43",
"t  c #FEE055",
"y  c #FEE059",
"u  c #FEE15B",
"i  c #FEE15C",
"p  c #FEE15D",
"a  c #FEE15E",
"s  c #8F9884",
"d  c #909985",
"f  c #AFB6A5",
"g  c #B0B6A5",
"h  c #E5B79A",
"j  c #E5B89A",
"k  c #BDC2B3",
"l  c #FCE782",
"z  c #FCE783",
"x  c #FCE784",
"c  c #FCE785",
"v  c #FCE98E",
"b  c #FCE98F",
"n  c #FCEA95",
"m  c #FCEA96",
"M  c #C5C9BB",
"N  c #C7CBBC",
"B  c #DDDFD3",
"V  c #E4E0C3",
"C  c #E4E0C4",
"Z  c #E4E1C4",
"A  c #E5E1C4",
"S  c #E5E1C5",
"D  c #E5E2C6",
"F  c #E6E2C7",
"G  c #E7E3C8",
"H  c #E7E3C9",
"J  c #E8E4CB",
"K  c #E8E5CC",
"L  c #E9E6CE",
"P  c #EAE7CF",
"I  c #EBE8D2",
"U  c #ECE9D4",
"Y  c #EDEBD7",
"T  c #EEEBD7",
"R  c #E7E7DC",
"E  c #EEEBD8",
"W  c #EFECD9",
"Q  c #EFECDA",
"!  c #F0EEDC",
"~  c #F1EFDF",
"^  c #FAF4D7",
"/  c #FAF4D8",
"(  c #FAF4D9",
")  c #F9F6DF",
"_  c #EBEBE1",
"`  c #EEEEE4",
"'  c #F2F0E0",
"]  c #F2F0E1",
"[  c #F3F1E2",
"{  c #F3F2E3",
"}  c #F1F1E7",
"|  c #F4F2E4",
" . c #F5F3E6",
".. c #F3F2E9",
"X. c #F6F4E8",
"o. c #F5F4EB",
"O. c #F7F6EB",
"+. c #F7F6EC",
"@. c #F9F7E8",
"#. c #F9F7EA",
"$. c #F9F7EB",
"%. c #F8F6ED",
"&. c #F8F7ED",
"*. c #F8F7EE",
"=. c #F9F8EE",
"-. c #F9F8EF",
/* pixels */
"                                                                                                                                ",
"                                                                                                                                ",
"                                                                                                                                ",
"                                                                                                                                ",
"                                                                                                                                ",
"                                                                                                                                ",
"                                                                                                                                ",
"                                                                                                                                ",
"                                                                                                                                ",
"                                                                                                                                ",
"                                                                                                                                ",
"                                                                                                                                ",
"                                                                                                                                ",
"                                                                                                                                ",
"                                                                                                                                ",
"                                                                                                                                ",
"                                                                                                                                ",
"                                                                                                                                ",
"                                                                                                                                ",
"                                                                                                                                ",
"                                                                                                                                ",
"                                                                                                                                ",
"                                                                                                                                ",
"                                                                                                                                ",
"                                                                                                                                ",
"                                                                                                                                ",
"                                                                                                                                ",
"                                                                                                                                ",
"                                                                                                                                ",
"                                                                                                                                ",
"                                                                                                                                ",
"                                                                                                                                ",
"                                                                                                                                ",
"                                                                                                                                ",
"                                                                                                                                ",
"                                                                                                                                ",
"                                                        -.-.-.-.-.-.-.-.-.                                                      ",
"                                                -.-.-.-.-.-.-.-.-.-.-.-.-.-.-.-.-.                                              ",
"                                            -.-.-.-.-.-.-.-.-.-.-.-.-.-.-.-.-.-.-.-.-.                                          ",
"                                        -.-.-.-.-.-.-.-.-.-.-.-.-.-.-.-.-.-.-.-.-.-.-.-.-.                                      ",
"                                      -.-.-.-.-.-.-.-.-.-.-.-.-.-.-.-.-.-.-.-.-.-.-.-.-.-.-.                                    ",
"                                  -.-.-.-.-.-.-.-.-.-.-.-.-.-.-.-.-.-.-.-.-.-.-.-.-.-.-.-.-.-.-.                                ",
"                                -.-.-.-.-.-.-.-.-.-.-.-.-.-.-.-.-.-.-.-.-.-.-.-.-.-.-.-.-.-.-.-.-.                              ",
"                              -.-.-.-.-.-.-.-.-.-.-.-.-.-.-.-.-.-.-.-.-.-.-.-.-.-.-.-.-.-.-.-.-.-.-.                            ",
"                            -.-.-.-.-.-.-.-.-.-.-.-.-.-.-.-.-.-.-.-.-.-.-.-.-.-.-.-.-.-.-.-.-.-.-.-.-.                          ",
"                            -.-.-.-.-.-.-.-.-.-.-.-.-.-.-.-.%.e ; e %.-.-.-.-.-.-.-.-.-.-.-.-.-.-.-.-.                          ",
"                          -.-.-.-.-.-.-.-.-.-.-.-.-.-.-.-.-.j - - - j -.-.-.-.-.-.-.-.-.-.-.-.-.-.-.-.-.                        ",
"                        -.-.-.-.-.-.-.-.-.-.-.-.-.-.-.-.-.-.w - - - w -.-.-.-.-.-.-.-.-.-.-.-.-.-.-.-.-.-.                      ",
"                        -.-.-.-.-.-.-.-.-.-.-.-.-.-.-.-.-.-.; - - - ; -.-.-.-.-.-.-.-.-.-.-.-.-.-.-.-.-.-.                      ",
"                      -.-.-.-.-.-.-.-.-.-.-.-.-.-.-.-.-.-.-.; - - - ; -.-.-.-.-.-.-.-.-.-.-.-.-.-.-.-.-.-.-.                    ",
"                      -.-.-.-.-.-.-.-.-.-.-.-.-.-.-.-.-.-.-.w - - - w -.-.-.-.-.-.-.-.-.-.-.-.-.-.-.-.-.-.-.                    ",
"                    -.-.-.-.-.-.-.-.-.-.-.-.-.-.-.-.-.-.-.-.h - - - h -.-.-.-.-.-.-.-.-.-.-.-.-.-.-.-.-.-.-.-.                  ",
"                    -.-.-.-.-.-.-.-.-.-.-.-.-.-.-.-.-.-.-.-.%.e : e %.-.-.-.-.-.-.-.-.-.-.-.-.-.-.-.-.-.-.-.-.                  ",
"                    -.-.-.-.-.-.-.-.-.-.-.-.-.-.-.-.-.-.-.-.-.-.-.-.-.-.-.-.-.-.-.-.-.-.-.-.-.-.-.-.-.-.-.-.-.                  ",
"                    -.-.-.-.-.-.-.-.-.-.-.-.-.-.-.-.-.-.-.-.-.-.-.-.-.-.-.-.-.-.-.-.-.-.-.-.-.-.-.-.-.-.-.-.-.                  ",
"                  -.-.-.-.-.-.-.-.-.-.-.-.-.-.-.-.-.-.-.-.-.-.-.-.-.-.-.-.-.-.-.-.-.-.-.-.-.-.-.-.-.-.-.-.-.-.-.                ",
"                  -.-.-.-.-.-.-.-.-.-.-.-.-.-.-.-.-.-.-.-.-.-.-.-.-.-.-.-.-.-.-.-.-.-.-.-.-.-.-.-.-.-.-.-.-.-.-.                ",
"                  -.-.-.-.-.-.-.-.-.-.-.-.( m a r 2 2 2 1 1 1 1 2 2 1 2 1 1 2 r a m ( -.-.-.-.-.-.-.-.-.-.-.-.-.                ",
"                  -.-.-.-.-.-.-.-.-.-.@.c 2 1 1 1 1 1 1 1 1 1 1 1 1 1 1 1 1 1 1 1 1 2 c @.-.-.-.-.-.-.-.-.-.-.-.                ",
"                  -.-.-.-.-.-.-.-.-.) t 1 1 1 1 1 1 1 1 1 1 1 1 1 1 1 1 1 1 1 1 1 1 2 2 t ) -.-.-.-.-.-.-.-.-.-.                ",
"                  -.-.-.-.-.-.-.-.@.y 1 1 1 1 1 1 1 1 1 1 1 1 1 1 1 1 1 1 1 1 1 1 1 1 1 1 y #.-.-.-.-.-.-.-.-.-.                ",
"                  -.-.-.-.-.-.-.-.c 1 1 1 1 1 1 1 1 1 1 1 1 1 1 1 1 1 1 1 1 1 1 1 1 1 1 1 1 c -.-.-.-.-.-.-.-.-.                ",
"                  -.-.-.-.-.-.-.( 2 1 1 1 1 1 7 8 1 1 1 1 1 1 1 1 1 1 1 1 1 1 7 8 1 1 1 1 1 2 ^ -.-.-.-.-.-.-.-.                ",
"                  -.-.-.-.-.-.-.n 1 1 1 1 1 1 = = 1 1 1 1 1 1 1 1 1 1 1 1 1 1 = = 1 1 1 1 1 2 v -.-.-.-.-.-.-.-.                ",
"                    -.-.-.-.-.-.y 1 1 1 1 1 1 $ # 1 1 1 1 1 1 1 1 1 1 1 1 1 1 $ $ 1 1 1 1 1 2 y -.-.-.-.-.-.-.                  ",
"                    -.-.-.-.-.-.r 1 1 1 1 1 1 % % 1 1 1 1 1 1 1 1 1 1 1 1 1 1 % % 1 1 1 1 1 2 6 -.-.-.-.-.-.-.                  ",
"                    -.-.-.-.-.-.5 2 1 1 1 1 1 % % 1 1 1 1 1 1 1 1 1 1 1 1 1 1 % % 2 1 1 1 1 2 1 -.-.-.-.-.-.-.                  ",
"                    -.-.-.-.-.-.r 2 1 1 1 1 1 # # 1 1 1 1 1 1 1 1 1 1 1 1 1 1 # $ 1 1 1 1 1 2 6 -.-.-.-.-.-.-.                  ",
"                      -.-.-.-.-.a 1 1 1 1 1 1 = = 1 1 1 1 1 1 1 1 1 1 1 1 1 1 = = 1 1 1 1 1 1 y -.-.-.-.-.-.                    ",
"                      -.-.-.-.-.v 1 1 1 1 1 1 8 8 1 1 1 1 1 1 1 1 1 1 1 1 1 1 7 8 2 1 1 1 1 1 v -.-.-.-.-.-.                    ",
"                        -.-.-.-.( 2 1 1 1 1 1 1 1 1 1 1 1 1 1 1 1 1 1 1 1 1 1 1 1 1 1 1 1 1 2 ^ -.-.-.-.-.                      ",
"                        -.-.-.-.-.z 1 1 1 1 1 1 1 1 1 1 1 1 1 1 1 1 1 1 1 1 1 1 1 1 1 1 1 2 z -.-.-.-.-.-.                      ",
"                          -.-.-.-.-.t 2 2 1 1 1 1 1 1 1 1 1 1 1 1 1 1 1 1 1 1 1 1 1 1 1 1 y #.-.-.-.-.-.                        ",
"                            -.-.-.-.) t 1 1 1 1 1 1 1 1 1 1 1 1 1 1 1 1 1 1 1 1 1 1 1 1 t ) -.-.-.-.-.                          ",
"                            -.-.-.-.-.@.z 2 1 1 2 1 1 2 1 1 1 1 1 1 1 1 1 1 1 1 1 1 2 z @.-.-.-.-.-.-.                          ",
"                            -.] -.-.-.-.-.^ n a r 2 1 2 1 1 1 1 1 1 1 1 1 1 2 r a m ( -.-.-.-.-.-.] -.                          ",
"                          -.-.Z ] -.-.-.-.-.-.-.-.-.-.-.-.-.-.-.-.-.-.-.-.-.-.-.-.-.-.-.-.-.-.-.] A -.-.                        ",
"                        -.-.-.V A W -.-.-.-.-.-.-.-.-.-.-.-.-.-.-.-.-.-.-.-.-.-.-.-.-.-.-.-.-.Q Z V -.-.-.                      ",
"                        -.-.-.V Z V I -.-.-.-.-.-.-.-.-.-.-.-.-.-.-.-.-.-.-.-.-.-.-.-.-.-.-.I V V V -.-.-.                      ",
"                        -.-.-.V V V V H ] -.-.-.-.-.-.-.-.-.-.-.-.-.-.-.-.-.-.-.-.-.-.-.] H V V V V -.-.-.                      ",
"                        -.-.-.V V V V V V K } -.-.-.-.-.-.-.-.-.-.-.-.-.-.-.-.-.-.-.] P V V V V V V -.-.-.                      ",
"                        -.-.-.V V V V V C A V K ! @.-.-.-.-.-.-.-.-.-.-.-.-.-.o.~ K V V V V V V V V -.-.-.                      ",
"                        -.-.-.V V V V V V V V V V V K Q ~ | %.o.-.&.O.| ~ T K Z V V V V V V V V V V -.-.-.                      ",
"                      -.-.-.-.A V V V V V V V V V V V V V V V V V V V Z V V V V V V V V V V V V A A -.-.-.-.                    ",
"                      -.-.-.-.H V V V V V V V V V V V V V V V V V V V V V V V V V V V V V V V V V H -.-.-.-.                    ",
"                      -.-.-.-.P V V V V V V V V V V V V V V V V V V V V V V V V V V V V V V V V V P -.-.-.-.                    ",
"                      -.-.-.-.W V V V V V V V V V V V V V V V V V V V V V V V V V V V V V V V V V T -.-.-.-.                    ",
"                      -.-.-.-.] V V V V V V V V V V V V V V V V V V V V V V V V V V V V V V V V A | -.-.-.-.                    ",
"                      -.-.-.-.-.A Z V V V V V V V V V V V V V V V V V V V V V V V V V V V V V V A -.-.-.-.-.                    ",
"                      -.-.-.-.-.Q A V V V V V V V V V V V V V V V V V V V V V V V V V V V V V V T -.-.-.-.-.                    ",
"                      -.-.-.-.-.%.A A A V V V V V V V V V V V V V V V V V V V V V V V V V V V A %.-.-.-.-.-.                    ",
"                      -.-.-.-.-.%.Q V A V V V V V V V V V V V V V V V V V V V V V V V V V Z A W -.-.-.-.-.-.                    ",
"                    -.-.-.-.-.-.-.%.J A V V V V V V V V V V V V V V V V V V V V V V V V V Z H -.-.-.-.-.-.-.-.                  ",
"                    -.-.-.-.-.-.-.-.| A V V V V V V V V V V V V V V V V V V V V V V V V V A O.-.-.-.-.-.-.-.-.                  ",
"                    -.-.-.-.-.-.-.-.-.{ A V V V V V V V V V V V V V V V V V V V V V Z Z A ] %.-.-.-.-.-.-.-.-.                  ",
"                    -.-.-.-.-.-.-.-.-.-.} A V V V V V V V V V V V V V V V V V V V V A A | -.-.-.-.-.-.-.-.-.-.                  ",
"                    -.-.-.-.-.-.-.-.-.-.-.O.J V V V V V V V V V V V V V V V V V V V J X.-.-.-.-.-.-.-.-.-.-.-.                  ",
"                      -.-.-.-.-.-.-.-.  -.-.%.W A V V V V V V V V V V V V V V A A Q -.%.-.  -.-.-.-.-.-.-.-.                    ",
"                      -.-.-.-.-.-.-.    -.-.-.-.O.W A V V V V V V V V A V V A W o.-.-.-.-.    -.-.-.-.-.-.-.                    ",
"                          -.-.-.-.      -.-.-.-.-.-.-.} U V V V V V V A U { -.-.-.-.-.-.-.      -.-.-.-.                        ",
"                                        -.-.-.-.-.-.-.-.-.              -.-.-.-.-.-.-.-.-.                                      ",
"                                        -.-.-.-.-.-.-.-.-.              -.-.-.-.-.-.-.-.-.                                      ",
"                                        -.-.-.-.-.-.-.-.-.              -.-.-.-.-.-.-.-.-.                                      ",
"                                        -.-.-.-.-.-.-.-.-.              -.-.-.-.-.-.-.-.-.                                      ",
"                                        -.-.-.-.-.-.-.-.-.              -.-.-.-.-.-.-.-.-.                                      ",
"                                        -.-.-.-.-.-.-.-.-.              -.-.-.-.-.-.-.-.-.                                      ",
"                                          -.-.-.-.-.-.-.-.              -.-.-.-.-.-.-.-.                                        ",
"                                          -.-.-.-.-.-.-.-.-.          -.-.-.-.-.-.-.-.-.                                        ",
"                                          -.-.-.-.-.-.-.-.-.          -.-.-.-.-.-.-.-.-.                                        ",
"                                          -.-.-.-.-.-.-.-.-.          -.-.-.-.-.-.-.-.-.                                        ",
"                                          -.-.-.-.-.-.-.-.o.. . . . . o.-.-.-.-.-.-.-.-.                                        ",
"                                        X o.-.-.-.-.-.-.-.-.+ . . . + -.-.-.-.-.-.-.-.o..                                       ",
"                                    . . . B -.-.-.-.-.-.-.-.& . . . & -.-.-.-.-.-.-.-.B . . .                                   ",
"                                . . . . . N -.-.-.-.-.-.-.-.0 . . . 0 -.-.-.-.-.-.-.-.N . . . . .                               ",
"                              . . . . . . g -.-.-.-.-.-.-.-.s . . . s -.-.-.-.-.-.-.-.f . . . . . .                             ",
"                            . . . . . . . d -.-.-.-.-.-.-.-., . . . , -.-.-.-.-.-.-.-.d . . . . . . .                           ",
"                            . . . . . . . + } -.-.-.-.-.-.R o . . . o R -.-.-.-.-.-.} O . . . . . . .                           ",
"                              . . . . . . . 0 -.-.-.-.-.| > . . . . . > ..-.-.-.-.%.0 . . . . . . .                             ",
"                                . . . . . . . * M ` _ k @ . . . . . . . @ k _ ` N & . . . . . . .                               ",
"                                    . . . . . . . . . . . . . . . . . . . . . . . . . . . . . .                                 ",
"                                        . . . . . . . . . . . . . . . . . . . . . . . . .                                       ",
"                                                  . . . . . . . . . . . . . . .                                                 ",
"                                                                                                                                ",
"                                                                                                                                ",
"                                                                                                                                ",
"                                                                                                                                ",
"                                                                                                                                ",
"                                                                                                                                "
};
