/* XPM */
static char *c74c8d29b1f94c85b0f64428201f9fe4zkgoBW2xOwW3HLSw[] = {
/* columns rows colors chars-per-pixel */
"64 64 53 1 ",
"  c #131426",
". c #131427",
"X c #141527",
"o c #151628",
"O c #151629",
"+ c #161729",
"@ c #16172A",
"# c #17182B",
"$ c #17192C",
"% c #18192C",
"& c #191A2D",
"* c #1A1B2E",
"= c #1A1B2F",
"- c #1A1C2F",
"; c #1B1C2F",
": c #1B1C30",
"> c #1B1D30",
", c #1C1D31",
"< c #1D1E31",
"1 c #1C1E32",
"2 c #1D1E32",
"3 c #1D1F32",
"4 c #1E1F32",
"5 c #1E2033",
"6 c #1E2034",
"7 c #1F2034",
"8 c #1F2134",
"9 c #1F2035",
"0 c #202135",
"q c #202136",
"w c #212236",
"e c #212337",
"r c #222338",
"t c #222339",
"y c #232439",
"u c #24253A",
"i c #24253B",
"p c #24263B",
"a c #25273C",
"s c #25273D",
"d c #26283D",
"f c #26283E",
"g c #27283E",
"h c #27293F",
"j c #282A40",
"k c #292A41",
"l c #292B41",
"z c #292B42",
"x c #2A2B42",
"c c #2A2C43",
"v c #2B2C43",
"b c #2B2D44",
"n c #3E4055",
/* pixels */
"-jbbbbbbbbbbbbbbbbbbbbbbbbbbbbbbbbbbbbbbbbbbbbbbbbbbbbbbbbbbbbbb",
" Xqbbbbbbbbbbbbbbbbbbbbbbbbbbbbbbbbbbbbbbbbbbbbbbbbbbbbbbbbbbbbb",
"   #sbbbbbbbbbbbbbbbbbbbbbbbbbbbbbbbbbbbbbbbbbbbbbbbbbbbbbbbbbbb",
"     3jbbbbbbbbbbbbbbbbbbbbbbbbbbbbbbbbbbbbbbbbbbbbbbbbbbbbbbbbb",
"      otbbbbbbbbbbbbbbbbbbbbbbbbbbbbbbbbbbbbbbbbbbbbbbbbbbbbbbbb",
"        %jbbbbbbbbbbbbbbbbbbbbbbbbbbbbbbbbbbbbbbbbbbbbbbbbbbbbbb",
"        ..4bbbbbbbbbbbbbbbbbbbbbbbbbbbbbbbbbbbbbbbbbbbbbbbbbbbbb",
"        ...osbbbbbbbbbbbbbbbbbbbbbbbbbbbbbbbbbbbbbbbbbbbbbbbbbbb",
"        ..   y;54;444;44444;4;;4;;4444;;444;44;;4;0bbbbbbbbbbbbb",
"        ..   xy;4;4;44;4;;444444444;;4444;44;44444obbbbbbbbbbbbb",
"            Xbx0;444;;4444;4;44;444;;444;4;4;444;;Xbbbbbbbbbbbbb",
"            Xbbh04;;444;4;44;44;;;4444;;44;444;;0XXbbbbbbbbbbbbb",
"             bbbh4444;;444;4;44444;44;444;44;444XX hbbbbbbbbbbbb",
"             xbbbg;44444;4;444;44;4444;444;4;4;&XXXbbbbbbbbbbbbb",
"            Xbbbbbw4;44;4;444;4;44;;;;44;;444;0X  Xbbbbbbbbbbbbb",
"             bbbbbbw;44;444;4;44;444444;444;44XX XXbbbbbbbbbbbbb",
"             bbbbbbx85;5;4;;44;44;;4;444;4444&     hbbbbbbbbbbbb",
"             bbbbbbbx55;0;444;44444444;;44;;5     Xbbbbbbbbbbbbb",
"             bbbbbbbbh;50;5;44;;;44;4;444;44      Xbbbbbbbbbbbbb",
"             bbbbbbbbbd;;5;5;444;44;44;4444#     XXbbbbbbbbbbbbb",
"             bbbbbbbbbbnnnnnnnnnnnnnnnnnnn-        xbbbbbbbbbbbb",
"             bbbbbbbbbbnnnnnnnnnnnnnnnnnnn        Xbbbbbbbbbbbbb",
"             bbbbbbbbbbnnnnnnnnnnnnnnnnnnn         bbbbbbbbbbbbb",
"             bbbbbbbbbbnnnnnnnnnnnnnnnnnnn         xbbbbbbbbbbbb",
"             bbbbbbbbbbnnnnnnnnnnnnnnnnnnn        Xbbbbbbbbbbbbb",
"            Xbbbbbbbbbbnnnnnnnnnnnnnnnnnnn         bbbbbbbbbbbbb",
"             xbbbbbbbbbnnnnnnnnnnnnnnnnnnn         xbbbbbbbbbbbb",
"            Xbbbbbbbbbbnnnnnnnnnnnnnnnnnnn        Xbbbbbbbbbbbbb",
"             xbbbbbbbbbnnnnnnnnnnnnnnnnnnn         xbbbbbbbbbbbb",
"            Xbbbbbbbbbbnnnnnnnnnnnnnnnnnnn        Xbbbbbbbbbbbbb",
"             bbbbbbbbbbnnnnnnnnnnnnnnnnnnn         xbbbbbbbbbbbb",
"             xbbbbbbbbbnnnnnnnnnnnnnnnnnnn        Xbbbbbbbbbbbbb",
"            Xbbbbbbbbbbnnnnnnnnnnnnnnnnnnn         bbbbbbbbbbbbb",
"             bbbbbbbbbbnnnnnnnnnnnnnnnnnnn         bbbbbbbbbbbbb",
"             xbbbbbbbbbnnnnnnnnnnnnnnnnnnn         bbbbbbbbbbbbb",
"            Xbbbbbbbbbbnnnnnnnnnnnnnnnnnnn         bbbbbbbbbbbbb",
"             xbbbbbbbbbnnnnnnnnnnnnnnnnnnn         bbbbbbbbbbbbb",
"            Xbbbbbbbbbbnnnnnnnnnnnnnnnnnnn         bbbbbbbbbbbbb",
"             xbbbbbbbbbnnnnnnnnnnnnnnnnnnn         bbbbbbbbbbbbb",
"            Xbbbbbbbbbbbbbbbbbbbbbbbbbbxbxy        bbbbbbbbbbbbb",
"             xbbbbbbbbbbbbbbbbbbbbbbbbbbbbbh#      bbbbbbbbbbbbb",
"            Xbbbbbbbbbbbbbbbbbbbbbbbbbbbbbbbx-     bbbbbbbbbbbbb",
"             bbbbbbbbbbbbbbbbbbbbbbbbbbbbbbbbb5    bbbbbbbbbbbbb",
"             xbbbbbbbbbbbbbbbbbbbbbbbbbbbbbbbbxd#  bbbbbbbbbbbbb",
"            Xbbbbbbbbbbbbbbbbbbbbbbbbbbbbbbbbbbbh& bbbbbbbbbbbbb",
"            Xbbbbbbbbbbbbbbbbbbbbbbxbbxxbbxxbbbxxx5bbbbbbbbbbbbb",
"            &44;4;;4444;;4444;;45;44544454445-445-5abbbbbbbbbbbb",
"           &4;4;4444;;4444;;4444444;4;;44-;4444;;5-5xbbbbbbbbbbb",
"           53;5;4;444;44;;4444;;4;;4;444;444444;5;5;0bbbbbbbbbbb",
"          -<;5;54;4;44;4444;;444444444;;44;;;;44;5;55wbbbbbbbbbb",
"         #4<;;5;44;4;;44444;;444;44;4;444;4444;44;0;44hbbbbbbbbb",
"        X5<<00;5;444444;;;4444;;;44;44;444;44;44;0;4;45xbbbbbbbb",
"        044;;0;444;;;44444;44;44444;4;44;;4444;;44;44;4ybbbbbbbb",
"       -;;444;4;;44444;;4;4444;44;444;4;444;;4444;4444;4dbbbbbbb",
"      #<;4;4444;;4444;4444;;;;44;4;444;4444;;44444;;;;444hbbbbbb",
"     o54;444;;4444;;44;4;444444;44;4;444;;4444;;;444444;;0bbbbbb",
"  XXX;;444;444;444;;44;4;444444;4;44;;444;444;444;;4;44444wbbbbb",
"  XX&4444;44;4;4;4444;4444;;;;4444;4444;4;4;44;4444444;;4;;gbbbb",
"  XX;04;44;;4;44;44444;;4;4444;4;;44444;44;4;;44;44;4;4444;4bbbb",
"  X;4;4;;444444;44;;;44444;44;44444;;;44;444444;;44;44;4;444wbbb",
"  %;;444444;;;44;444444;;;4444;;;444444;44;;;444444;4;444;;40ubb",
" &;544;4;;44444;44;4;;44444;;44444;;4;44;44444;;4;444;4;4444;4hb",
"X00;4;4;44;4444;4;4;44;4444;;4444;44;4;4;4444;44;4;444;4;44;4;0b",
";;0;4;444;44;;444;444;44;;4444;;44;444;444;;44;444;4;444;44;44;y"
};
