/* XPM */
static char *ed8a8618984e41668ae3d91b6f45b1d6Xx3GcXUpQE7sIteh[] = {
/* columns rows colors chars-per-pixel */
"48 48 191 2 ",
"   c None",
".  c #C22900",
"X  c #C22A01",
"o  c #C22B01",
"O  c #C32D01",
"+  c #C42E02",
"@  c #C32E04",
"#  c #C32F04",
"$  c #C32F05",
"%  c #C33106",
"&  c #C83B05",
"*  c #C43408",
"=  c #C43509",
"-  c #C4360A",
";  c #C4370B",
":  c #C4380B",
">  c #C4390C",
",  c #C53A0D",
"<  c #C53B0D",
"1  c #C53D0F",
"2  c #A35226",
"3  c #A55326",
"4  c #A85427",
"5  c #B05728",
"6  c #B95C29",
"7  c #D35C0F",
"8  c #D35D0F",
"9  c #C64112",
"0  c #C64212",
"q  c #C64213",
"w  c #C64414",
"e  c #C64615",
"r  c #C74716",
"t  c #C74817",
"y  c #C74B19",
"u  c #C84E1B",
"i  c #C8511E",
"p  c #C8521F",
"a  c #C95520",
"s  c #C95621",
"d  c #C95924",
"f  c #CA5B25",
"g  c #CA5D26",
"h  c #CA5D27",
"j  c #C05E2A",
"k  c #C25F2A",
"l  c #CA5E28",
"z  c #C3602A",
"x  c #C6612A",
"c  c #CB6029",
"v  c #CB612A",
"b  c #C8622B",
"n  c #CB622A",
"m  c #CB632B",
"M  c #CB642B",
"N  c #CC652B",
"B  c #CD672A",
"V  c #CC662B",
"C  c #CC672B",
"Z  c #CD682B",
"A  c #CD692C",
"S  c #CE6A2C",
"D  c #CF6C2C",
"F  c #CF6D2C",
"G  c #D06F2C",
"H  c #D0702C",
"J  c #D1722C",
"K  c #D2732D",
"L  c #D2742D",
"P  c #D2752D",
"I  c #D3772D",
"U  c #D4792D",
"Y  c #D47A2D",
"T  c #D57B2D",
"R  c #D67E2D",
"E  c #E0871B",
"W  c #E28A1C",
"Q  c #E5941F",
"!  c #D7812D",
"~  c #D7822E",
"^  c #D8842E",
"/  c #D9852E",
"(  c #D9872E",
")  c #DA882E",
"_  c #DA892E",
"`  c #DC8D2D",
"'  c #DC8C2F",
"]  c #DC8D2F",
"[  c #DD8F2F",
"{  c #DD912F",
"}  c #E1982F",
"|  c #E09630",
" . c #E09730",
".. c #E19C30",
"X. c #E29C30",
"o. c #E29D30",
"O. c #E39E30",
"+. c #E39F31",
"@. c #EAA324",
"#. c #EBAE2C",
"$. c #EEB128",
"%. c #F1B92A",
"&. c #E3A031",
"*. c #E5A531",
"=. c #E6A631",
"-. c #E6A731",
";. c #E7A831",
":. c #E8AB32",
">. c #E9AD32",
",. c #E9AE32",
"<. c #EAAF32",
"1. c #ECB633",
"2. c #ECB733",
"3. c #EDB833",
"4. c #EEBB33",
"5. c #EFBD33",
"6. c #EFBE33",
"7. c #F0BF33",
"8. c #F3C22D",
"9. c #F1C134",
"0. c #F1C334",
"q. c #F2C434",
"w. c #F2C534",
"e. c #F3C634",
"r. c #F4C934",
"t. c #F4CA35",
"y. c #F5CD35",
"u. c #F6CF35",
"i. c #F7D035",
"p. c #FAD632",
"a. c #F8D435",
"s. c #F8D436",
"d. c #F9D636",
"f. c #F9D736",
"g. c #FAD936",
"h. c #FBDA36",
"j. c #FBDB36",
"k. c #FCDC36",
"l. c #FCDD36",
"z. c #FCDE36",
"x. c #FDE037",
"c. c #FDE137",
"v. c #FEE137",
"b. c #FEE336",
"n. c #FEE237",
"m. c #FEE337",
"M. c #FFE437",
"N. c #FFE537",
"B. c #FFE63B",
"V. c #FFE63C",
"C. c #FFE63D",
"Z. c #FFE641",
"A. c #FFE743",
"S. c #FFE744",
"D. c #FFE745",
"F. c #FFE746",
"G. c #FFE748",
"H. c #FFE749",
"J. c #FFE84D",
"K. c #FFE850",
"L. c #FFE953",
"P. c #FFE957",
"I. c #FFE95A",
"U. c #FFEA5F",
"Y. c #FFEC6C",
"T. c #FFED75",
"R. c #FFED76",
"E. c #FFEE7F",
"W. c #FFEE80",
"Q. c #FFEF84",
"!. c #FFF08F",
"~. c #FFF091",
"^. c #FFF193",
"/. c #FFF198",
"(. c #FFF29D",
"). c #FFF29E",
"_. c #FFF2A0",
"`. c #FFF3A1",
"'. c #FFF3A2",
"]. c #FFF3A3",
"[. c #FFF3A4",
"{. c #FFF3A5",
"}. c #FFF3A6",
"|. c #FFF3A7",
" X c #FFF4AA",
".X c #FFF4AC",
"XX c #FFF4AF",
"oX c #FFF4B0",
"OX c #FFF5B1",
"+X c #FFF5B3",
"@X c #FFF5B4",
/* pixels */
"                                                                                                ",
"                                                                                                ",
"                                              m                                                 ",
"                                              m m                                               ",
"                                              m m                                               ",
"                                              m m m                                             ",
"                              N.N.            m m m                                             ",
"                              N.N.N.        m m m m m                                           ",
"                              N.N.N.N.      m m m m m m                                         ",
"                            N.N.N.N.N.    m m m m m m m m                                       ",
"                            N.N.N.N.N.N.w.m m m m m m m m m                       2             ",
"                .         N.N.N.N.N.N.N.] m m m m m m m m m m m                 2               ",
"                . .       N.N.N.N.N.N.0.m m m m m m m m m m m m m           2 2 2               ",
"                . . .   N.N.N.N.N.N.b.P m m m m m m m m m m m m m m     2 2 2 2 2               ",
"                . . . & b.N.N.N.B.M...m m m m m m m m m m m m m m m m j 4 2 2 2 2               ",
"                . . . W N.N.N.N.b.0.m m m m m m m m m m m S m m m m m m m 5 2 2 2               ",
"              . . . # p.N.N.N.N.g.H n N m m m m S m m m m U m m m m m m m m 6 2 2               ",
"              . . . 7 N.N.N.N.b.( n m n m m m m ~ m m m m o.m m m m m m m m m j 3               ",
"              . . . Q N.N.N.N.>.m m m m m m m m 7.m m m m u.m m m m m m m m m m z               ",
"            . . . . $.N.N.N.t.N m m m m m m m ( M.G m m T B.R m m m m m m m m m m x             ",
"            . . . . %.N.B.z.H n m m m m m m m 7.N.;.m M -.N.>.m m m m m m m m m m m m           ",
"          . . . . . @.N.b.] N n m m m m m m ~ b.N.b.P N f.N.z.F m m m m m m m m m m m m         ",
"          . . . . . E N.>.M m m m m m m m S u.N.N.N.t. .N.N.N.:.M m m m m m m m m m m m         ",
"        . . . . . . 7 a.S m m m m m m m m 1.N.N.N.N.N.z.N.N.N.b.H m m m m m m m m m m m m       ",
"      . . . . . . . + ! m m m m m M M N *.N.N.N.N.N.N.N.N.N.N.N.9.m m m m m m m m m m m N >     ",
"      . . . . . . . 0 m m m m m m M M } N.N.N.N.N.N.N.N.N.N.N.N.N.{ m m m m m m m m m m m u     ",
"    . . . . . . . # h m m m m m m m o.B.N.N.N.N.N.N.N.N.N.N.N.N.N.g.F m m m m m m m m m m h     ",
"    . . . . . . . y M m m m m m N *.N.N.N.N.N.N.N.N.N.N.N.N.N.N.N.N.1.m m m m m m m m m m m     ",
"  . . . . . . . # m m m m M m M >.N.N.N.N.N.N.N.N.N.N.N.N.N.N.N.N.N.N.! m m m m m m m m m m     ",
"  . . . . . . . e m m m m M M 3.N.N.N.N.N.N.N.N.N.N.N.N.N.N.N.N.N.N.N.u.N m m m m m m m m m e   ",
"  . . . . . . . d m m m m N 5.N.N.N.N.N.N.N.N.N.N.N.N.N.N.N.N.N.N.N.N.N.] m m m m m m m m m 0   ",
". . . . . . . # m m m m M 3.N.N.N.N.N.N.N.N.N.N.C.N.N.N.N.N.N.N.N.N.N.B.w.m m m m m m m m m 1   ",
". . . . . . . > m m m m &.b.N.N.N.N.N.N.N.N.N.N.P.Z.B.N.N.N.N.N.N.N.N.N.N.P M m m m m m m m :   ",
". . . . . . . > m m M U M.B.N.N.N.N.N.N.N.N.N.B.Q.R.N.N.N.N.N.N.N.N.N.N.N.} M M m m m m m m # . ",
". . . . . . . > m m m 5.N.N.N.N.N.N.N.N.N.N.N.K.@X.XH.B.N.N.N.N.N.N.N.N.N.q.m m m m m m m h . . ",
". . . . . . . % m m G M.N.N.N.N.N.N.N.N.N.N.S. X@X@X}.Z.N.N.N.N.N.N.N.N.b.z.m m m m m m m y . . ",
"  . . . . . . . m m ( N.N.N.N.N.N.N.N.N.N.Z.'.@X@X@X@X].S.B.N.N.N.N.N.N.N.N.m m m m m m m - . . ",
"  . . . . . . . p N ] N.N.N.N.N.N.N.N.N.S.].+X@X@X@X@X@X].S.N.N.N.N.N.N.N.N.F m m m m m a . . . ",
"  . . . . . . . t N _ N.N.N.N.N.N.N.N.S.].@X@X@X@X@X@X@X@X].A.N.N.N.N.N.N.N.H m m m m n - . . . ",
"    . . . . . . - m U N.N.N.N.N.N.N.B.).@X@X@X@X@X@X@X@X@X@X!.N.N.N.N.N.N.N.G m m m n e . . .   ",
"      . . . . . . f Z b.B.N.N.N.N.N.R.@X@X@X@X@X@X@X@X@X@X@X@XI.N.N.N.N.B.M.m m m m i . . . .   ",
"      . . . . . . 0 n q.N.N.N.N.N.N.].@X@X@X@X@X@X@X@X@X@X@X@XQ.N.N.N.N.b.s.m m m a . . . .     ",
"        . . . . . . f  .N.N.N.N.N.N..X@X@X@X@X@X@X@X@X@X@X@X@X/.N.N.N.N.N.*.m m y . . . .       ",
"          . . . . . > N f.N.N.N.N.N.).+X@X@X@X@X@X@X@X@X@X@X@X^.N.N.N.B.b.N l , . . . . .       ",
"              . . . . e ( N.N.N.N.N.E.+X@X@X@X@X@X@X@X@X@X@X@XR.N.N.N.N...y # . . . .           ",
"                  . . . 0 } N.N.N.N.H.+X@X@X@X@X@X@X@X@X@X@X XA.N.N.N.#.% . . . . .             ",
"                          0 ] z.N.N.N.U.oX@X@X@X+X+X@X@X+X{.K.N.N.N.8.                          ",
"                                >.g.N.N.G.W.'.oX@X+X{.^.Y.C.N.N.N.                              "
};
