/* XPM */
static char *_8b21cd1ac1e4ac6e06a9f8824df9465lcOCLbYoOsnEZHNG[] = {
/* columns rows colors chars-per-pixel */
"48 48 188 2 ",
"   c None",
".  c #C14700",
"X  c #C14803",
"o  c #C14905",
"O  c #C14A05",
"+  c #C24A08",
"@  c #C24B08",
"#  c #C24C0A",
"$  c #C24F0D",
"%  c #C35214",
"&  c #C35619",
"*  c #C3571B",
"=  c #C3581D",
"-  c #C4591D",
";  c #C45920",
":  c #C55F28",
">  c #C56029",
",  c #C56129",
"<  c #C5622D",
"1  c #C5632D",
"2  c #C5642F",
"3  c #C5652F",
"4  c #C66834",
"5  c #C66934",
"6  c #C66935",
"7  c #C66A35",
"8  c #C76C39",
"9  c #C76D39",
"0  c #C76E3B",
"q  c #C76F3C",
"w  c #C7713D",
"e  c #C7713F",
"r  c #A27149",
"t  c #A37149",
"y  c #A47149",
"u  c #AC744A",
"i  c #A87A4A",
"p  c #B6784B",
"a  c #BE7C4C",
"s  c #C87241",
"d  c #C87442",
"f  c #C87443",
"g  c #C87645",
"h  c #C17D4D",
"j  c #C47D4D",
"k  c #C97A49",
"l  c #C97B4A",
"z  c #C97C4A",
"x  c #C97C4B",
"c  c #C97D4B",
"v  c #CA7E4C",
"b  c #CA7F4D",
"n  c #B58C4C",
"m  c #C7844F",
"M  c #CA804F",
"N  c #CA814F",
"B  c #CB824F",
"V  c #CB834F",
"C  c #CB844F",
"Z  c #CC844F",
"A  c #CC854F",
"S  c #CB8251",
"D  c #CD8650",
"F  c #CC8656",
"G  c #CE8850",
"H  c #CE8950",
"J  c #CF8B50",
"K  c #CF8C50",
"L  c #D08D50",
"P  c #D18F51",
"I  c #D29251",
"U  c #D29351",
"Y  c #D39451",
"T  c #D49551",
"R  c #D59851",
"E  c #D59952",
"W  c #D69A52",
"Q  c #D69B52",
"!  c #D79D52",
"~  c #D89E52",
"^  c #D89F52",
"/  c #C7A551",
"(  c #C9A551",
")  c #CEAE52",
"_  c #D8A052",
"`  c #D9A052",
"'  c #D9A152",
"]  c #D9A254",
"[  c #DBA554",
"{  c #DCA654",
"}  c #DDA854",
"|  c #DDA954",
" . c #DEAB55",
".. c #DEAC55",
"X. c #DFAC55",
"o. c #CFB052",
"O. c #D1B354",
"+. c #E0B055",
"@. c #E1B155",
"#. c #E3B355",
"$. c #E3B356",
"%. c #E5B856",
"&. c #E6BA56",
"*. c #E7BB56",
"=. c #E7BC56",
"-. c #E8BD57",
";. c #E9BF57",
":. c #D19162",
">. c #D59B6B",
",. c #E9C057",
"<. c #E9C157",
"1. c #EAC157",
"2. c #EAC257",
"3. c #ECC658",
"4. c #ECC758",
"5. c #EDC758",
"6. c #EECA58",
"7. c #EFCB58",
"8. c #EFCC58",
"9. c #EFCD58",
"0. c #F0CD58",
"q. c #F1CF59",
"w. c #F2D259",
"e. c #F3D359",
"r. c #F4D65A",
"t. c #F5D85A",
"y. c #F6DA5A",
"u. c #F7DB5A",
"i. c #F7E15A",
"p. c #F9E05B",
"a. c #FAE15B",
"s. c #FAE25B",
"d. c #FBE35B",
"f. c #FBE65B",
"g. c #FCE45B",
"h. c #FCE55B",
"j. c #FCE65B",
"k. c #FDE65B",
"l. c #FDE75C",
"z. c #FDE85C",
"x. c #FEE85C",
"c. c #FEE95C",
"v. c #FEEA5C",
"b. c #FFEA5C",
"n. c #FFEB5C",
"m. c #EDC963",
"M. c #EDCB7E",
"N. c #FFEC60",
"B. c #FFEC62",
"V. c #FFEC66",
"C. c #FFED68",
"Z. c #FFED69",
"A. c #FFED6A",
"S. c #FFED6B",
"D. c #FFED6E",
"F. c #FFED72",
"G. c #FFEE77",
"H. c #FFEE7B",
"J. c #FFEE7D",
"K. c #E0B587",
"L. c #E9C89A",
"P. c #FFF196",
"I. c #FFF29E",
"U. c #F0D8A9",
"Y. c #FFF3A2",
"T. c #FFF3AB",
"R. c #FFF4AE",
"E. c #F7E7B8",
"W. c #FAEDBB",
"Q. c #FAECBD",
"!. c #FFF4B2",
"~. c #FFF5B6",
"^. c #FFF5B7",
"/. c #FFF5B8",
"(. c #FFF6B9",
"). c #FFF6BA",
"_. c #FFF6BB",
"`. c #FFF6BD",
"'. c #FFF6BE",
"]. c #FFF6C0",
"[. c #FFF6C1",
"{. c #FDF3C5",
"}. c #FEF5C5",
"|. c #FEF6C4",
" X c #FFF6C4",
".X c #FFF7C5",
"XX c #FFF7C7",
"oX c #FFF7C8",
/* pixels */
"                                                                                                ",
"                                                                                                ",
"                                                                                                ",
"                                                  M                                             ",
"                                                  M       n.n.                                  ",
"                                                M M M     n.n.n.                                ",
"                                                M M M     n.n.n.n.                              ",
"                                              M M M M M n.n.n.n.n.                              ",
"                                              b M M M M w.n.n.n.n.n.              r             ",
"                                            S b M M M M L d.n.n.n.n.n.          r               ",
"                .                         S b S M M M M S ! n.n.n.n.n.n.    r r r               ",
"                . .                     ! b b S M M M M b b { n.n.n.n.n.l.i r r r               ",
"                . . .                   $.S b b b S b b b b S  .n.n.n.n.n.o.r r r               ",
"                . . . .               S y.S S b F j S S S b S b [ n.n.n.n.d.r r r               ",
"                . . . . . .         S Y n.T b S ! S b b b S b b S [ n.n.n.n.n r r               ",
"              . . . . . . . .     b S &.N.;.b S 8.b S S j b b S b b _ n.n.n./ r r               ",
"              . . . . . . . X , S S S u.n.d.G ! n.K M M M M M M M M M _ n.n.) r r               ",
"              . . . . . . . 3 M b b ..n.n.n.=.8.n.&.M M M M M M M M M M ! d.) r r r             ",
"            . . . . . . . 5 M M M M d.n.n.n.n.n.n.n.I M M M M M M M M M b Q / r r r             ",
"            . . . . . X 8 M M M M &.n.n.n.n.n.n.n.n.r.S M M M M M M M M S b S r r r             ",
"          . . . . . X q M M M M Y n.n.n.n.n.n.n.n.n.n.4.M M M M M M M M M M M h y r             ",
"          . . . . X 8 M M M M M w.n.n.n.n.n.n.n.n.n.n.n.,.M M M M M M M M M M M a r             ",
"        . . . . X 5 S M M M M X.n.n.n.n.n.n.n.n.n.n.n.n.n.,.M M M M M M M M M M M p r     .     ",
"      . . . . . 1 M M M M M I j.n.n.n.n.n.n.n.n.n.n.n.n.n.n.3.C M M M M M M M M M M u     X     ",
"      . . . . & b M M M M M 6.n.n.n.n.n.n.n.n.n.n.n.n.n.n.n.n.8.M M M M M M M M b S b   . .     ",
"    . . . . o k M M M M M _ n.n.n.n.n.n.n.n.n.n.n.n.n.n.n.n.n.n.q.S M M M M M M j b b 3 . .     ",
"    . . . . 3 M M M M M M y.n.n.n.n.n.n.n.n.n.n.n.n.n.n.n.n.n.n.n.q.S b M M M M S S b l o .     ",
"  . . . . X c M M M M M Q n.n.n.n.n.n.n.n.n.n.n.n.n.n.n.n.n.n.n.n.B.<.b M M M M b b S b , .     ",
"  . . . . ; b S M M M M ,.n.n.n.n.n.n.n.n.n.n.n.n.n.n.n.n.n.n.n.n.n.n.@.b F b j S S j S f . .   ",
"  . . . . 5 b b M M M M d.n.n.n.n.n.n.n.n.n.n.n.n.n.n.n.n.n.n.n.n.n.n.n.E b b F b b S b b @ .   ",
". . . . . q S b M M M Y n.n.n.n.n.n.n.n.n.n.n.n.B.n.n.n.n.n.n.n.n.n.n.n.r.b b b b F b b b = .   ",
". . . . . e S b M M M 8.n.n.n.n.n.n.n.n.n.n.n.n.H.Z.n.n.n.n.n.n.n.n.n.N.V.~ b b b b b S S : . . ",
". . . . . q b b b S G n.n.n.n.n.n.n.n.n.n.n.n.n.Y.P.n.n.n.n.n.n.n.n.n.n.n.6.M M M M M M M 1 . . ",
". . . . . 5 b S j b ^ n.n.n.n.n.n.n.n.n.n.n.n.G.oX.XF.n.n.n.n.n.n.n.n.n.n.d.M M M M M M M 3 . . ",
". . . . . < b b S b { n.n.n.n.n.n.n.n.n.n.n.Z._.oXoX`.Z.n.n.n.n.n.n.n.n.n.n.G M M M M M b : . . ",
"  . . . . = S S S b ] N.n.n.n.n.n.n.n.n.n.Z./.oXoXoXoX/.Z.n.n.n.n.n.n.n.n.n.K M M M M M S = . . ",
"  . . . . @ b b S b U n.n.n.n.n.n.n.n.n.D./.oXoXoXoXoXoX_.D.n.n.n.n.n.n.n.n.G M b S S b b @ . . ",
"  . . . . . f S b S S n.n.n.n.n.n.n.n.Z._.oXoXoXoXoXoXoXoX).V.n.n.n.n.n.n.n.M M b b b b g . .   ",
"    . . . . , b b S b w.n.n.n.n.n.n.B.^.oXoXoXoXoXoXoXoXoXoXT.n.n.n.n.n.n.8.M M S j b S 1 . .   ",
"      . . . o b b b S ..n.n.n.n.n.n.P.oXoXoXoXoXoXoXoXoXoXoXoXJ.n.n.n.n.n.} M M b S b b @ .     ",
"      . . . . 1 S b S F u.n.n.n.n.n./.oXoXoXoXoXoXoXoXoXoXoXoXY.n.n.n.n.y.S S b S b b : .       ",
"        . . . X k b b b ] n.n.n.n.n.].oXoXoXoXoXoXoXoXoXoXoXoX!.n.n.n.l.T b b b S b f X .       ",
"          . . . $ j b b S @.n.n.n.n./.oXoXoXoXoXoXoXoXoXoXoXoXR.n.n.N.E S b b S b g #           ",
"              . . % l b b b [ d.n.n.I..XoXoXoXoXoXoXoXoXoXoXoXP.B.8.K b b S b S g #             ",
"                  . $ d b b b F -.d.D..XoXoXoXoXoXoXoXoXoXoX].m.! b S b b S b s                 ",
"                        q b M S M M Q M.}.oXoXoXoXoXoXoXoXW.>.M S b S b b S                     ",
"                              M M M M M :.L.E.{.oX}.Q.U.K.F M M b S b                           ",
"                                    M M M M M M S M M M M M M                                   "
};
