/* XPM */
static char *_1846d5b6a3a4deebfeff95c465c9eb1SQsU2x1YUTm3brnF[] = {
/* columns rows colors chars-per-pixel */
"48 48 191 2 ",
"   c None",
".  c #C22900",
"X  c #C22A00",
"o  c #C22A01",
"O  c #C22B01",
"+  c #C22B02",
"@  c #C32D01",
"#  c #C32D03",
"$  c #C42E02",
"%  c #C63604",
"&  c #C73704",
"*  c #C73905",
"=  c #C83A05",
"-  c #C83B05",
";  c #C93F06",
":  c #C2340A",
">  c #C43408",
",  c #C4380B",
"<  c #CF510C",
"1  c #D1560D",
"2  c #D35C0F",
"3  c #D35D0F",
"4  c #C64313",
"5  c #C24217",
"6  c #C2471C",
"7  c #C74C1A",
"8  c #C2481D",
"9  c #C94D18",
"0  c #C84D1A",
"q  c #C84E1B",
"w  c #C84E1C",
"e  c #C8501D",
"r  c #C8521E",
"t  c #D86E14",
"y  c #C55723",
"u  c #C25226",
"i  c #C25326",
"p  c #C25427",
"a  c #CA5C26",
"s  c #CA5E27",
"d  c #C25928",
"f  c #C25A28",
"g  c #C25B29",
"h  c #C35F2A",
"j  c #C7612A",
"k  c #CB6128",
"l  c #CB6029",
"z  c #C8622B",
"x  c #C9622B",
"c  c #CB632B",
"v  c #CB642B",
"b  c #CC652B",
"n  c #CC662B",
"m  c #CC672B",
"M  c #CD672B",
"N  c #CD682B",
"B  c #CE6A2C",
"V  c #D06F2C",
"C  c #DA7E23",
"Z  c #D0702C",
"A  c #D3762D",
"S  c #D3772D",
"D  c #D3782D",
"F  c #D4792D",
"G  c #D47A2D",
"H  c #D57B2D",
"J  c #D67E2D",
"K  c #DF831E",
"L  c #DF851E",
"P  c #E0871B",
"I  c #E28A1C",
"U  c #E3901E",
"Y  c #E4911E",
"T  c #E5941F",
"R  c #D7822E",
"E  c #D8842E",
"W  c #D8852E",
"Q  c #D9852E",
"!  c #D9872E",
"~  c #DA892E",
"^  c #DA8A2F",
"/  c #DC8E2F",
"(  c #DD8F2F",
")  c #DF9530",
"_  c #E09630",
"`  c #E19B30",
"'  c #E29D30",
"]  c #E29E30",
"[  c #E39E30",
"{  c #E9A324",
"}  c #EAA324",
"|  c #EEB027",
" . c #EEB128",
".. c #F1B92A",
"X. c #F2BE2C",
"o. c #E3A031",
"O. c #E4A231",
"+. c #E5A531",
"@. c #E6A731",
"#. c #E7A831",
"$. c #E9AD32",
"%. c #E9AE32",
"&. c #EAAF32",
"*. c #EAB032",
"=. c #EBB132",
"-. c #EBB332",
";. c #EBB432",
":. c #ECB633",
">. c #ECB733",
",. c #EEBB33",
"<. c #EFBD33",
"1. c #EFBE33",
"2. c #F0BE33",
"3. c #F1C132",
"4. c #F1C134",
"5. c #F1C434",
"6. c #F2C434",
"7. c #F2C534",
"8. c #F3C634",
"9. c #F4C834",
"0. c #F4CA35",
"q. c #F5CC35",
"w. c #F6CF35",
"e. c #F7D235",
"r. c #F8D031",
"t. c #F9D432",
"y. c #FAD632",
"u. c #F8D235",
"i. c #F8D435",
"p. c #F9D636",
"a. c #F9D736",
"s. c #FAD836",
"d. c #FAD936",
"f. c #FBDB36",
"g. c #FCDB34",
"h. c #FDDE35",
"j. c #FCDE36",
"k. c #FDDF36",
"l. c #FDE037",
"z. c #FDE137",
"x. c #FEE136",
"c. c #FEE137",
"v. c #FEE336",
"b. c #FEE237",
"n. c #FEE337",
"m. c #FFE437",
"M. c #FFE537",
"N. c #FFE538",
"B. c #FFE63B",
"V. c #FFE63C",
"C. c #FFE63D",
"Z. c #FFE641",
"A. c #FFE743",
"S. c #FFE744",
"D. c #FFE745",
"F. c #FFE746",
"G. c #FFE748",
"H. c #FFE749",
"J. c #FFE84D",
"K. c #FFE850",
"L. c #FFE953",
"P. c #FFE957",
"I. c #FFE95A",
"U. c #FFEA5F",
"Y. c #FFEC6C",
"T. c #FFED75",
"R. c #FFED76",
"E. c #FFEE7F",
"W. c #FFEE80",
"Q. c #FFEF84",
"!. c #FFF08F",
"~. c #FFF091",
"^. c #FFF193",
"/. c #FFF198",
"(. c #FFF29D",
"). c #FFF29E",
"_. c #FFF2A0",
"`. c #FFF3A1",
"'. c #FFF3A2",
"]. c #FFF3A3",
"[. c #FFF3A4",
"{. c #FFF3A5",
"}. c #FFF3A6",
"|. c #FFF3A7",
" X c #FFF4AA",
".X c #FFF4AC",
"XX c #FFF4AF",
"oX c #FFF4B0",
"OX c #FFF5B1",
"+X c #FFF5B3",
"@X c #FFF5B4",
/* pixels */
"                                                                                                ",
"                                                                                                ",
"                                                                                                ",
"                                                            v                                   ",
"                                                            c                                   ",
"                                                          c c                                   ",
"                                                          c c                                   ",
"                                                        c c c                                   ",
"                  .                                   c c c c c                                 ",
"                  . .                                 c c c c c                                 ",
"                  . . .   M.M.                      c c c c c c                       u         ",
"                  . . . . h.M.M.                  c c c c c c c c                   u           ",
"                  . . . 1 M.M.M.M.              c c c c c c c c c               u u u           ",
"                . . . . { M.M.M.M.x.        c c c c c c c c c c c           u u u u u           ",
"                . . . - x.M.M.M.M.M.|     c c c c c c c c c c c c c     u u u u u u u           ",
"                . . . Y M.M.M.M.M.M.M.K s c c c c B c c c B c c c c f u u u u u u u u           ",
"              . . . * h.M.M.M.M.M.M.9.Z c c c c c F c c c E c c c c j u u u u u u u u           ",
"              . . . U M.M.M.M.M.M.;.m c c c c c c ] c c m <.c c c c c f u u u u u u u           ",
"            . . . - h.M.M.M.N.M.] c c c c c c c c e.c c Q x.V c c c c j u u u u u u u           ",
"            . . . I M.M.M.M.x./ c c c c c c c c F M.J c 1.M.@.c c c c c f u u u u u u u         ",
"          . . . @ y.M.M.M.x.^ c c c c c c c c c @.M.$.R N.M.x.A c c c c c p u u u u u u         ",
"        . . . . 2 M.M.M.M./ c c c c c c c c c m p.N.h.e.M.M.N.0.m c c c c f u u u u u u   .     ",
"        . . . . Y M.M.M.O.c c c c c c c c c c _ M.M.M.M.M.M.M.M.,.c c c c j u u u u u u : .     ",
"      . . . . .  .M.M.7.v c c c c c c c c c m p.M.M.M.M.M.M.M.M.N.$.v c c c f u u u u 8 . .     ",
"      . . . . . ..M.M.D v c c c c c c c c c @.M.M.M.M.M.M.M.M.M.M.M.-.v v v h u u u 8 . . .     ",
"    . . . . . . } M.;.v c c c c c c c c c D h.M.M.M.M.M.M.M.M.M.M.M.x.;.v v c p u 6 @ . . .     ",
"    . . . . . . L M.Q c c c c c c c c c v 7.M.M.M.M.M.M.M.M.M.M.M.M.M.M.1.v v f 5 . . . . .     ",
"    . . . . . . 3 x.v c c c c c c c c c ] N.M.M.M.M.M.M.M.M.M.M.M.M.M.M.N.<.m y . . . . . . .   ",
"  . . . . . . . $ 3.v c c c c c c c c A M.M.M.M.M.M.M.M.M.M.M.M.M.M.M.M.M.M.5.k . . . . . . .   ",
"  . . . . . . . . C c c c c c c c c v p.M.M.M.M.C.M.M.M.M.M.M.M.M.M.M.M.M.M.M. .# . . . . . .   ",
"  . . . . . . . . 9 c c c c c c v v 7.N.M.M.M.M.P.D.M.M.M.M.M.M.M.M.M.M.M.M.M.M.Q . . . . . . . ",
"  . . . . . . . . 7 c c c c c c c o.M.M.M.M.M.M.Q.R.M.M.M.M.M.M.M.M.M.M.M.M.v.v.v.< . . . . . . ",
"  . . . . . . . . r c c c c c c D M.M.M.M.M.M.K.@XOXJ.M.M.M.M.M.M.M.M.M.M.M.M.M.M.X.. . . . . . ",
"    . . . . . . . r c c c c c c <.M.M.M.M.M.D.|.@X@X|.D.M.M.M.M.M.M.M.M.M.M.M.M.M.M.2 . . . . . ",
"    . . . . . . . w v c c c c B M.M.M.N.M.A.].@X@X@XOX].A.M.M.M.M.M.M.M.M.M.M.M.M.M.{ . . . . . ",
"    . . . . . . . 9 c c c v v ^ M.M.M.N.D.`.OX@X@X@X@X@X|.D.M.M.M.M.M.M.M.M.M.M.M.M.t.. . . . . ",
"      . . . . . . 4 c c c c c ( M.M.M.D.].@X@X@X@X@X@X@X@X].C.N.M.M.M.M.M.M.M.M.M.M.M.% . . .   ",
"        . . . . . > c c c c c ^ M.M.N.).@X@X@X@X@X@X@X@X@XOX^.N.M.M.M.M.M.M.M.M.M.M.M.; . . .   ",
"        . . . . . @ c c c c c F N.M.R.@X@X@X@X@X@X@X@X@X@X@X@XI.M.M.M.M.M.M.M.M.M.M.M.% . .     ",
"          . . . . . w c c c c m x.M.].@X@X@X@X@X@X@X@X@X@X@X@XQ.M.M.M.M.M.M.M.M.M.M.h.. .       ",
"            . . . . > c c c c c 7.N..X@X@X@X@X@X@X@X@X@X@X@X@X/.M.M.M.M.M.M.M.M.M.M. .. .       ",
"                . . . w c c c c ) x.).@X@X@X@X@X@X@X@X@X@X@X@X^.M.M.M.M.M.M.M.M.M.M.t           ",
"                    . # a c c c B f.E.@X@X@X@X@X@X@X@X@X@X@X@XR.M.M.M.M.M.M.M.M.M.t.            ",
"                          c c c c Q G.OX@X@X@X@X@X@X@X@X@X@X XA.M.M.M.M.M.M.M.M.M.              ",
"                            c c c c -.U.OX@X@XOX@X@X@X@X@X|.K.M.M.M.M.M.M.M.M.M.                ",
"                                c c c 6.G.W.].OX@XOX|.^.Y.N.N.M.M.M.M.M.M.M.M.                  ",
"                                    c m -.M.M.M.N.N.M.M.M.M.M.N.M.M.M.M.M.                      ",
"                                          ] q.j.M.x.x.h.f.e.p.x.M.                              "
};
