/* XPM */
static char *_c505554afc4459099f5200688184cb3IV6wAhrPiMruIeXN[] = {
/* columns rows colors chars-per-pixel */
"48 48 142 2 ",
"   c None",
".  c #AC2D00",
"X  c #A33800",
"o  c #A43900",
"O  c #A53900",
"+  c #A63900",
"@  c #C20F00",
"#  c #C21000",
"$  c #C21100",
"%  c #C21200",
"&  c #C31200",
"*  c #C31300",
"=  c #C31600",
"-  c #C41900",
";  c #C41D00",
":  c #C41E00",
">  c #C52000",
",  c #C62600",
"<  c #C62700",
"1  c #C82000",
"2  c #C62800",
"3  c #C62900",
"4  c #C62A00",
"5  c #C62B00",
"6  c #C62C00",
"7  c #C72F00",
"8  c #C73000",
"9  c #C83500",
"0  c #C83600",
"q  c #C83700",
"w  c #C83800",
"e  c #C93C00",
"r  c #C93D00",
"t  c #C93E00",
"y  c #BF4400",
"u  c #C04400",
"i  c #C14500",
"p  c #C24500",
"a  c #C34600",
"s  c #C74700",
"d  c #CA4000",
"f  c #CA4200",
"g  c #CA4300",
"h  c #CA4400",
"j  c #CA4500",
"k  c #CB4800",
"l  c #CB4900",
"z  c #CB4A00",
"x  c #CC4B00",
"c  c #CC4C00",
"v  c #CC4D00",
"b  c #CD4D00",
"n  c #CD4E00",
"m  c #D34200",
"M  c #CE5000",
"N  c #CF5200",
"B  c #CF5300",
"V  c #D05500",
"C  c #D05600",
"Z  c #D15800",
"A  c #D25A00",
"S  c #D35D00",
"D  c #D46000",
"F  c #D56100",
"G  c #D66500",
"H  c #D76800",
"J  c #D86900",
"K  c #D96900",
"L  c #D86A00",
"P  c #D96B00",
"I  c #D96D00",
"U  c #DA6E00",
"Y  c #DA6F00",
"T  c #DC7200",
"R  c #DC7400",
"E  c #DD7500",
"W  c #DE7800",
"Q  c #DF7A00",
"!  c #E27000",
"~  c #E37600",
"^  c #E57900",
"/  c #E07C00",
"(  c #E28200",
")  c #E28300",
"_  c #E38500",
"`  c #E38600",
"'  c #E58B00",
"]  c #E68C00",
"[  c #E68D00",
"{  c #E78E00",
"}  c #E78F00",
"|  c #E99300",
" . c #E99400",
".. c #EA9500",
"X. c #EA9600",
"o. c #EB9900",
"O. c #EB9A00",
"+. c #EC9C00",
"@. c #EC9D00",
"#. c #ED9D00",
"$. c #ED9E00",
"%. c #EEA100",
"&. c #EFA300",
"*. c #EFA400",
"=. c #F0A400",
"-. c #F0A500",
";. c #F1A700",
":. c #F2AA00",
">. c #F2AB00",
",. c #F4B000",
"<. c #F5B100",
"1. c #F5B200",
"2. c #F7B600",
"3. c #F9BC00",
"4. c #FABC00",
"5. c #FABF00",
"6. c #FBC100",
"7. c #FCC200",
"8. c #FCC300",
"9. c #FCC400",
"0. c #FDC400",
"q. c #FDC600",
"w. c #FDC700",
"e. c #FEC800",
"r. c #FEC900",
"t. c #FFCA00",
"y. c #FFCB00",
"u. c #FFCC00",
"i. c #FFCD00",
"p. c #FFCE00",
"a. c #FFCF00",
"s. c #FFD000",
"d. c #FFD200",
"f. c #FFD300",
"g. c #FFD400",
"h. c #FFD500",
"j. c #FFD600",
"k. c gold",
"l. c #FFD800",
"z. c #FFD900",
"x. c #FFDA00",
"c. c #FFDB00",
/* pixels */
"                                                                                                ",
"                                                                                                ",
"                                                                                                ",
"                                                  l                                             ",
"                                                  l                                             ",
"                                                l l l                                           ",
"                                                l l l                                           ",
"                                              l l l l l                                         ",
"                                              l l l l l                                         ",
"                            y.y.            l l l l l l l                                       ",
"                            y.y.y.        l l l l l l l l l                       X             ",
"                            y.y.y.y.    l l l l l l l l l l l                   X               ",
"                @         y.y.y.y.y.    l l l l l l l l l l l l             X X X               ",
"                @ @       y.y.y.y.y.$.l l l l l l l l l l l l l l       X X X X X               ",
"                @ @ @   y.y.y.y.y.$.c l l l l l l l l l l l l l l s X X X X X X X               ",
"                @ @ @ 1 y.y.y.y.O.x l l l l l l l M l l l l l l l l y O X X X X X               ",
"                @ @ @ ~ y.y.y...l l l l l l l l l L l l l l l l l l l u O X X X X               ",
"              @ @ # : 8.y.y.' l l l l l l l l l c *.l l l l l l l l l l p O X X X         @     ",
"              @ @ @ ! y.y.) l l l l l l l l l l L y.B x l l l l l l l l l p O X X         @     ",
"              @ # # 3.y.W l l l l l l l l l l l =.y.' x l l l l l l l l l l p O X O     @ @     ",
"            @ @ # m y.T l l l l l l l l l l l H y.y.w.S l l l l l l l l l l l p O X   @ @ @     ",
"            @ @ # ^ E x l l l l l l l l l l c 2.y.y.y.,.c x l l l l l l l l l l y . @ @ @ @     ",
"          @ @ @ @ L x j l l l l l l l l l l $.y.y.y.y.y.$.l l l l l l l l l l l l 2 $ @ @ @     ",
"          @ @ @ 2 l l x l l l l l l l l l ' y.y.y.y.y.y.y.| l l l l l l l l l l l l ; $ @ @ @   ",
"        @ @ @ ; l l l l l l l l l l l l ) y.y.y.y.y.y.y.y.y...l l l l l l l l l l l r @ @ @ @   ",
"      @ @ @ $ f l l l l l l l l l l l _ y.y.y.y.y.y.y.y.y.y.y.+.x x l l l l l l l l l 7 @ @ @   ",
"      @ @ @ 2 x l l l l l l l l l l ' a.y.y.y.y.y.y.y.y.y.y.y.y.$.c l l l l l l l l l f $ @ @ @ ",
"    @ @ @ $ j l l l l l l l l l l ..y.y.y.y.y.y.a.a.y.y.y.y.y.y.a.=.c l l l l l l l l x , @ @ @ ",
"    @ @ @ > l l l l l l l l l l $.y.y.y.y.y.y.y.g.d.y.y.y.y.y.y.y.y.=.x l l l l l l l l w $ @ @ ",
"  @ @ @ @ 7 l l l l l l l l c %.y.y.y.y.y.y.y.a.l.l.a.a.y.y.y.y.y.y.a...l l l l l l l l x $ @ @ ",
"  @ @ @ @ 0 l l l l l l l l $.y.y.y.y.y.y.y.a.l.c.c.l.a.y.y.y.y.y.y.y.y._ l l l l l l l l ; @ @ ",
"  @ @ @ @ w l l l l l l l _ y.y.y.y.y.y.y.a.l.c.c.c.l.l.a.y.y.y.y.y.y.y.y.G l l l l l l l , @ @ ",
"@ @ @ @ @ 0 l l l l l l S w.y.y.y.y.y.y.y.l.c.c.c.c.c.c.l.a.a.y.y.y.y.y.y.>.c l l l l l l 2 $   ",
"@ @ @ @ @ 8 l l l l l l =.a.y.y.y.y.y.a.l.l.c.c.c.c.c.c.c.l.y.y.y.y.y.y.y.y.I x l l l l l 2 $   ",
"@ @ @ @ @ 2 l l l l l V y.y.y.y.y.y.a.l.c.c.c.c.c.c.c.c.c.c.g.y.y.y.y.y.y.y.$.l l l l l l ,     ",
"@ @ @ @ $ > l l l l l I y.y.y.y.y.y.d.c.c.c.c.c.c.c.c.c.c.c.c.d.y.y.y.y.y.a.4.x l l l l l 2     ",
"@ @ @ @ @ $ x l l l l E y.y.y.y.y.y.l.c.c.c.c.c.c.c.c.c.c.c.c.g.y.y.y.y.y.y.y.M l l l l l       ",
"  @ @ @ @ $ w l l l l T y.y.y.y.y.y.l.c.c.c.c.c.c.c.c.c.c.c.c.l.y.y.y.y.y.y.y.A l l l l l       ",
"  @ @ @ @ @ 2 x l l l S y.y.y.y.y.y.l.c.c.c.c.c.c.c.c.c.c.c.c.l.y.y.y.y.y.y.y.M l l l l         ",
"  @ @ @ @ @ $ j l l l c w.y.y.y.y.a.g.c.c.c.c.c.c.c.c.c.c.c.c.g.y.y.y.y.y.y.8.l l l l l         ",
"    @ @ @ @ $ 2 l l l l :.y.y.y.y.y.y.l.c.c.c.c.c.c.c.c.c.l.l.a.y.y.y.y.y.y.=.l l l l           ",
"      @ @ @ @ $ r l l l Q a.y.y.y.y.y.a.l.c.c.l.c.c.c.c.c.l.a.y.y.y.y.y.y.a.W l l l l           ",
"      @ @ @ @ @ = j l l c 4.y.y.y.y.y.y.a.d.l.l.c.c.l.g.g.a.y.y.y.y.y.y.y.2.x l l l             ",
"        @ @ @ @ @ - f l x L y.y.y.y.y.y.a.y.a.y.y.a.y.y.y.y.y.y.y.y.y.y.w.F l l l               ",
"          @ @ @ @ @ - w l l ) y.y.y.y.y.y.y.y.y.y.y.y.y.y.y.y.y.y.y.y.8.L l l                   ",
"              @ @ @ @ $ 2 j l T 8.a.y.y.y.y.y.y.y.y.y.y.y.y.y.y.y.y.=.A l l                     ",
"                  @ @ @ $ $ 2 r B } 6.y.y.y.y.y.y.a.y.y.y.y.y.8.O.L x                           ",
"                          @ @ @   0 l I ' $.:.<.<.:.=.%.O.' T                                   "
};
