/* XPM */
static char *_63a4e99a5944ec9bcda1685e1316bf8ERwKFv6d9IWJww6z[] = {
/* columns rows colors chars-per-pixel */
"48 48 163 2 ",
"   c None",
".  c #BF1300",
"X  c #BA1A00",
"o  c #AB2D00",
"O  c #AB2F00",
"+  c #B22400",
"@  c #B82000",
"#  c #A73700",
"$  c #A33800",
"%  c #A53900",
"&  c #A63900",
"*  c #AB3B00",
"=  c #AD3C00",
"-  c #C20F00",
";  c #C11000",
":  c #C01100",
">  c #C11100",
",  c #C21000",
"<  c #C21100",
"1  c #C21200",
"2  c #C31200",
"3  c #C31300",
"4  c #C31400",
"5  c #C31600",
"6  c #C41D00",
"7  c #C41E00",
"8  c #C41F00",
"9  c #C71F00",
"0  c #C52000",
"q  c #C52100",
"w  c #C62600",
"e  c #C62700",
"r  c #C82000",
"t  c #C82100",
"y  c #C62800",
"u  c #C62900",
"i  c #C62A00",
"p  c #C62B00",
"a  c #C62C00",
"s  c #C72F00",
"d  c #C73000",
"f  c #C83500",
"g  c #C83600",
"h  c #C83800",
"j  c #C93C00",
"k  c #C93E00",
"l  c #D13E00",
"z  c #B54000",
"x  c #B74000",
"c  c #BC4300",
"v  c #BF4400",
"b  c #C34100",
"n  c #C14500",
"m  c #C24500",
"M  c #C34600",
"N  c #C54600",
"B  c #C74700",
"V  c #CA4200",
"C  c #CA4400",
"Z  c #CA4500",
"A  c #CB4700",
"S  c #C94800",
"D  c #CA4800",
"F  c #CB4800",
"G  c #CB4900",
"H  c #CB4A00",
"J  c #CC4B00",
"K  c #CC4C00",
"L  c #CC4D00",
"P  c #CD4D00",
"I  c #CD4E00",
"U  c #D34200",
"Y  c #CE5000",
"T  c #CF5200",
"R  c #CF5300",
"E  c #D05500",
"W  c #D05600",
"Q  c #D15800",
"!  c #D25A00",
"~  c #D35D00",
"^  c #D46000",
"/  c #D56100",
"(  c #D66500",
")  c #D76800",
"_  c #D86A00",
"`  c #D96B00",
"'  c #D96D00",
"]  c #DA6E00",
"[  c #DA6F00",
"{  c #DC7200",
"}  c #DE7300",
"|  c #DC7400",
" . c #DD7500",
".. c #DE7800",
"X. c #DF7A00",
"o. c #E27000",
"O. c #E37600",
"+. c #E47700",
"@. c #E57A00",
"#. c #E07C00",
"$. c #E07F00",
"%. c #E28200",
"&. c #E28300",
"*. c #E38500",
"=. c #E38600",
"-. c #E58B00",
";. c #E68C00",
":. c #E68D00",
">. c #E78E00",
",. c #E78F00",
"<. c #E98900",
"1. c #E99300",
"2. c #E99400",
"3. c #EA9500",
"4. c #EA9600",
"5. c #EB9900",
"6. c #EB9A00",
"7. c #EC9C00",
"8. c #EC9D00",
"9. c #ED9D00",
"0. c #ED9E00",
"q. c #EEA100",
"w. c #EFA300",
"e. c #EFA400",
"r. c #F0A400",
"t. c #F0A500",
"y. c #F1A700",
"u. c #F2AA00",
"i. c #F2AB00",
"p. c #F4B000",
"a. c #F5B100",
"s. c #F5B200",
"d. c #F7B600",
"f. c #F9BC00",
"g. c #FABC00",
"h. c #FABF00",
"j. c #FBC100",
"k. c #FCC200",
"l. c #FCC300",
"z. c #FCC400",
"x. c #FDC400",
"c. c #FDC600",
"v. c #FDC700",
"b. c #FEC700",
"n. c #FEC800",
"m. c #FEC900",
"M. c #FFCA00",
"N. c #FFCB00",
"B. c #FFCC00",
"V. c #FFCD00",
"C. c #FFCE00",
"Z. c #FFCF00",
"A. c #FFD000",
"S. c #FFD200",
"D. c #FFD300",
"F. c #FFD400",
"G. c #FFD500",
"H. c #FFD600",
"J. c gold",
"K. c #FFD800",
"L. c #FFD900",
"P. c #FFDA00",
"I. c #FFDB00",
/* pixels */
"                                                                                                ",
"                                                                                                ",
"                                                                                                ",
"                                                G                                               ",
"                                                G                                               ",
"                                              G G G                                             ",
"                                              G G G                                             ",
"                                            G G G G G                                           ",
"                                            G G G G G                                           ",
"                -                         G G G G G G G                                         ",
"                - -     N.N.            G G G G G G G G G                                       ",
"                - - -   N.N.N.        G G G G G G G G G G G                                     ",
"                - - - l N.N.N.N.      G G G G G G G G G G G G                           $       ",
"                - - - <.N.N.N.N.    G G G G G G G G G G G G G G                       $         ",
"              - - - t b.N.N.N.N.0.G G G G G G G G G G G G G G G G                 $ $ $         ",
"              - - - +.N.N.N.N.6.K G G G G G G G Y G G G G G G G G G           $ $ $ $ $         ",
"              - - 9 k.N.N.N.2.K G G G G G G G G ` G G G G G G G G G G     $ $ $ $ $ $ $         ",
"            - - - O.N.N.N.-.G G G G G G G G G J w.G G G G G G G G G G m & $ $ $ $ $ $ $         ",
"            - - 9 l.N.N.&.G G G G G G G G G G ` N.R G G G G G G G G G G m & $ $ $ $ $ $         ",
"          - - - o.N.N.X.G G G G G G G G G G G w.N.;.G G G G G G G G G G G m & $ $ $ $ $         ",
"          - - 3 g.N.{ G G G G G G G G G G G ( N.N.b.~ G G G G G G G G G C J m & $ $ $ $         ",
"        - - - U N.| G G G G G G G G G G J K d.N.N.B.p.K G G G G G G G G J A J c $ $ $ $ $ <     ",
"      - - - < @.X.G G G G G G G G G G G G 0.N.N.N.N.N.8.K G G G G G G G G G G G x $ $ $ + -     ",
"      - - - < | G G G G G G G G G G G G -.N.N.N.N.N.N.B.2.G G G G G G G G G G G G = $ o - -     ",
"    - - - - 9 G G G G G G G G G G G G &.N.N.N.N.N.N.N.N.N.2.G G G G G G G G G G G N o . - <     ",
"    - - - < V G G G G G G G G G G G *.N.N.N.N.N.N.N.N.N.N.N.0.K G G G G G G G G G G p < - -     ",
"  - - - - p G G G G G G G G G G G ;.N.N.N.N.N.N.N.N.N.N.N.N.N.w.K J G G G G G G G G C < - -     ",
"  - - - < C G G G G G G G G G G 2.B.N.N.N.N.N.N.N.N.N.N.N.N.N.N.r.K G G G G G G G G G w - - -   ",
"  - - - 9 G G G G G G G G G K 0.B.N.N.N.N.N.N.N.N.N.N.N.N.N.N.N.N.r.K J G G G G G G G j - - -   ",
"- - - - s G G G G G G G G G w.N.N.N.N.N.N.N.N.N.N.N.N.N.N.N.N.N.N.N.2.J G G G G G G G G < - -   ",
"- - - - g G G G G G G G G 8.N.N.N.N.N.N.N.N.N.N.B.B.N.N.N.N.N.N.N.N.N.&.G G G G G G G G 9 - - - ",
"- - - - h G G G G G G G *.B.N.N.N.N.N.N.N.N.N.B.G.G.N.N.N.N.N.N.N.N.N.N.( G G G G G G G w - - < ",
"- - - - g G G G G G G ~ N.N.N.N.N.N.N.N.N.N.N.B.I.I.B.B.N.N.N.N.N.N.N.N.p.G G G G G G G p - - - ",
"- - - - s G G G G G G w.N.N.N.N.N.N.N.N.N.N.B.I.I.I.I.B.N.N.N.N.N.N.N.N.N.' G G G G G G p - - - ",
"  - - - p G G G G G R N.N.N.N.N.N.N.N.N.N.B.G.I.I.I.I.I.B.N.N.N.N.N.N.N.N.0.G G G G G G w - - - ",
"  - - - 9 G G G G G ' N.N.N.N.N.N.N.N.N.B.I.I.I.I.I.I.I.I.B.N.N.N.N.N.N.N.k.G G G G G G 7 - - - ",
"  - - - < J G G G G | N.N.N.N.N.N.N.N.N.G.I.I.I.I.I.I.I.I.I.B.B.N.N.N.N.N.N.Y G G G G G 5 - -   ",
"    - - - j G G G G { N.N.N.N.N.N.N.B.I.I.I.I.I.I.I.I.I.I.I.G.B.N.N.N.N.N.N.Q G G G G j - - -   ",
"      - - p G G G G ^ B.N.N.N.N.N.N.S.I.I.I.I.I.I.I.I.I.I.I.I.B.N.N.N.N.N.N.Y G G G J p - -     ",
"      - - < C G G G K b.N.N.N.N.N.N.I.I.I.I.I.I.I.I.I.I.I.I.I.G.N.N.N.N.N.b.G G G G C < -       ",
"        - - p G G G G i.B.N.N.N.N.N.I.I.I.I.I.I.I.I.I.I.I.I.I.I.N.N.N.N.N.u.C J G G p - .       ",
"          - < j G G G X.B.B.N.N.N.N.I.I.I.I.I.I.I.I.I.I.I.I.I.G.N.N.N.N.N.| J A G h < X         ",
"              5 V G G K f.N.N.N.N.N.G.I.I.I.I.I.I.I.I.I.I.I.I.S.N.N.N.N.d.J J J j @             ",
"                q C G G ' N.N.N.B.B.B.I.I.I.I.I.I.I.I.I.I.I.I.B.N.N.N.b./ G J b &               ",
"                    G G G &.N.N.N.N.N.B.I.I.I.I.I.I.I.I.I.I.B.N.N.B.b.) G G = &                 ",
"                        G G { k.N.N.N.N.B.S.I.I.I.I.I.G.S.B.N.N.N.r.~ C c *                     ",
"                            G Y ,.l.N.N.N.N.B.N.N.N.N.N.N.N.l.6.) B v                           ",
"                                  K ' ;.0.u.p.p.u.r.w.6.;.{                                     "
};
